<?xml version="1.0" standalone="no"?>
<!DOCTYPE svg PUBLIC "-//W3C//DTD SVG 20010904//EN"
 "http://www.w3.org/TR/2001/REC-SVG-20010904/DTD/svg10.dtd">
<svg version="1.0" xmlns="http://www.w3.org/2000/svg"
 width="2000.000000pt" height="2000.000000pt" viewBox="0 0 2000.000000 2000.000000"
 preserveAspectRatio="xMidYMid meet">
<metadata>
Created by potrace 1.15, written by Peter Selinger 2001-2017
</metadata>
<g transform="translate(0.000000,2000.000000) scale(0.100000,-0.100000)"
fill="#000000" stroke="none">
<path d="M1224 19645 c-228 -41 -406 -134 -570 -299 -141 -141 -229 -292 -282
-485 l-27 -96 0 -8760 0 -8760 27 -97 c15 -53 44 -135 66 -181 148 -317 442
-543 781 -602 73 -13 693 -15 4757 -15 l4674 0 0 3735 0 3735 -1255 0 -1255 0
0 1460 0 1460 1255 0 1255 0 0 1128 c0 1118 5 1353 36 1632 125 1163 643 2082
1484 2636 482 317 1020 501 1692 580 185 22 855 29 1278 15 524 -19 1262 -67
1468 -97 l42 -6 0 -1303 0 -1304 -892 -3 c-969 -5 -1013 -7 -1241 -64 -239
-59 -392 -139 -532 -279 -130 -131 -206 -272 -259 -487 -54 -215 -56 -273 -56
-1405 l0 -1043 1441 0 1440 0 -6 -52 c-4 -29 -89 -685 -188 -1458 l-182 -1405
-1252 -3 -1253 -2 0 -3735 0 -3735 2548 2 2547 3 84 24 c394 110 660 378 774
779 l22 77 3 8720 c2 6435 0 8741 -8 8800 -21 146 -82 303 -169 435 -53 81
-191 221 -277 280 -98 68 -222 125 -342 158 l-97 27 -8730 2 c-7065 1 -8743
-1 -8801 -12z"/>
</g>
</svg>
