<?xml version="1.0" standalone="no"?>
<!DOCTYPE svg PUBLIC "-//W3C//DTD SVG 20010904//EN"
 "http://www.w3.org/TR/2001/REC-SVG-20010904/DTD/svg10.dtd">
<svg version="1.0" xmlns="http://www.w3.org/2000/svg"
 width="1280.000000pt" height="958.000000pt" viewBox="0 0 1280.000000 958.000000"
 preserveAspectRatio="xMidYMid meet">
<metadata>
Created by potrace 1.15, written by Peter Selinger 2001-2017
</metadata>
<g transform="translate(0.000000,958.000000) scale(0.100000,-0.100000)"
fill="#000000" stroke="none">
<path d="M6851 8514 c-12 -15 -21 -31 -21 -35 0 -5 -9 -9 -19 -9 -46 0 -127
-106 -118 -153 4 -19 4 -19 6 4 0 14 8 34 17 45 15 18 15 18 5 -3 -15 -30 -14
-52 4 -88 l15 -30 -20 24 c-11 13 -20 18 -20 12 0 -6 20 -32 45 -56 40 -41 49
-45 93 -45 53 0 111 34 131 78 15 33 14 39 -5 16 -15 -18 -15 -18 -5 3 6 12
11 34 11 48 0 14 -5 36 -11 48 -10 21 -10 21 5 3 9 -11 16 -16 16 -10 0 5 -10
20 -23 34 -12 14 -18 19 -12 10 6 -10 1 -8 -15 5 -14 11 -26 20 -27 20 -1 1 7
7 19 14 16 10 19 10 12 -1 -6 -10 -4 -10 9 1 23 19 21 44 -6 69 -31 29 -61 28
-86 -4z"/>
<path d="M4082 8075 c4 -4 3 -14 -3 -21 -6 -8 -9 -21 -5 -29 4 -10 2 -14 -5
-9 -7 4 -10 1 -7 -7 3 -8 10 -14 16 -14 5 0 14 -4 19 -9 5 -5 3 -6 -5 -2 -9 6
-12 2 -10 -10 3 -16 -3 -19 -42 -17 -42 2 -43 1 -15 -8 37 -11 88 -2 79 14 -5
8 -3 8 6 0 8 -7 10 -16 6 -20 -14 -14 -115 -6 -141 11 -15 10 -32 15 -38 12
-7 -2 -5 -5 4 -5 9 -1 24 -11 35 -23 19 -23 19 -23 -2 -5 -27 23 -44 22 -44
-3 0 -13 7 -20 19 -20 24 0 37 -18 23 -32 -5 -5 -27 -11 -48 -13 -35 -2 -36
-2 -9 5 24 6 26 8 8 9 -13 0 -23 7 -23 15 0 8 -5 18 -11 22 -8 4 -9 -1 -5 -17
6 -21 6 -22 -5 -6 -6 11 -12 25 -13 33 -1 8 -6 13 -12 12 -5 -2 -8 -6 -6 -10
1 -5 -4 -8 -12 -8 -8 0 -18 -4 -21 -10 -8 -13 13 -52 25 -45 4 3 6 -3 3 -13
-2 -10 3 -25 13 -33 16 -12 17 -12 10 1 -7 12 -6 12 8 -1 15 -14 15 -18 1 -45
-8 -16 -15 -22 -15 -14 -1 11 -3 11 -11 -3 -13 -22 0 -58 38 -102 14 -16 22
-23 17 -15 -7 13 -5 13 9 1 9 -7 14 -17 12 -22 -3 -4 9 -14 27 -22 54 -24 98
-37 98 -28 0 5 -16 12 -35 15 -33 7 -100 36 -80 36 14 -1 114 -36 121 -43 8
-7 -35 -63 -44 -59 -4 2 -8 -5 -10 -15 -3 -15 -1 -16 8 -3 9 12 10 11 6 -5 -3
-11 -2 -35 3 -53 6 -20 6 -30 0 -27 -5 4 -9 14 -9 23 0 9 -5 24 -10 32 -8 11
-9 7 -4 -15 10 -44 33 -87 44 -80 6 3 7 0 5 -7 -4 -9 4 -14 26 -16 17 -1 44
-9 60 -17 34 -18 70 -12 114 19 17 12 34 21 39 21 5 0 11 6 14 14 3 8 0 11 -5
8 -6 -4 -8 4 -4 21 5 24 6 25 9 5 2 -15 8 -20 18 -16 13 5 13 8 2 15 -9 7 -8
8 5 4 11 -3 24 -3 30 1 7 4 14 8 17 9 3 0 18 4 33 9 22 6 35 3 57 -14 20 -14
37 -19 57 -15 29 6 69 49 55 58 -5 3 -15 -5 -22 -19 -18 -33 -57 -41 -84 -16
-11 11 -39 21 -61 24 l-40 4 39 1 c29 2 46 -4 63 -20 20 -18 26 -20 48 -10 14
7 32 26 39 43 12 28 14 29 19 10 3 -12 13 -21 25 -21 10 0 27 -10 38 -22 19
-23 19 -23 -2 -5 -35 29 -74 16 -74 -26 0 -10 -4 -16 -8 -13 -5 3 -8 -5 -7
-16 2 -29 50 -46 79 -28 19 12 20 12 7 -4 -9 -11 -24 -16 -38 -13 -12 2 -20 0
-17 -4 21 -35 86 23 80 72 -3 34 -32 69 -57 69 -11 0 -19 9 -21 23 -2 12 -8
22 -15 22 -6 0 -15 4 -20 9 -4 5 -3 6 3 3 7 -4 16 9 23 32 13 47 14 71 1 91
-7 11 -9 7 -5 -15 3 -16 1 -43 -5 -60 -9 -28 -9 -27 -4 10 3 23 0 53 -5 69 -7
17 -7 25 -1 21 23 -14 8 13 -25 45 -26 26 -33 39 -29 57 7 26 -11 58 -53 98
-39 35 -91 34 -124 -2 l-24 -28 26 23 c16 14 38 22 61 22 24 0 41 -7 54 -22
19 -23 19 -23 -2 -5 -28 23 -75 22 -107 -3 l-26 -20 -24 22 c-13 13 -22 29
-20 36 3 7 -1 11 -8 10 -7 -2 -13 3 -14 11 0 9 -13 14 -37 15 -20 1 -34 -3
-31 -7 3 -5 18 -7 34 -5 15 3 26 1 23 -4 -10 -16 -51 -8 -70 14 -10 12 -13 18
-6 14 10 -6 13 -3 10 10 -2 11 -8 19 -15 19 -6 0 -15 4 -20 9 -5 5 -3 6 5 2
16 -9 15 3 -3 34 -9 15 -14 19 -15 10 0 -13 -2 -13 -9 0 -6 8 -8 17 -5 21 2 4
-1 11 -8 15 -7 4 -10 4 -6 -1z"/>
<path d="M4878 7562 c-9 -9 -13 -23 -11 -30 7 -18 -17 -72 -30 -69 -6 1 -12
-7 -14 -18 -3 -17 -2 -17 6 -5 8 11 9 6 4 -20 -10 -56 -23 -82 -18 -35 5 37 4
38 -5 10 -5 -16 -8 -36 -5 -42 7 -19 42 -16 54 5 6 9 11 12 11 5 0 -6 -10 -19
-22 -27 -12 -9 -18 -16 -12 -16 24 0 73 78 56 89 -5 4 -4 19 4 41 l14 35 -6
-32 c-8 -48 3 -40 14 10 6 23 14 52 17 65 6 18 4 22 -14 22 -12 0 -20 4 -16 9
10 18 -12 20 -27 3z"/>
<path d="M6202 7385 c-12 -9 -41 -22 -64 -29 -24 -8 -52 -17 -62 -21 -15 -7
-17 -5 -11 5 5 8 -6 4 -23 -9 -57 -40 -117 -171 -90 -196 8 -7 9 -6 4 3 -4 6
-5 12 -2 12 3 0 10 -10 17 -21 8 -15 8 -19 0 -15 -6 4 -11 2 -11 -3 0 -6 4
-11 9 -11 5 0 12 -7 15 -16 6 -15 4 -15 -10 -3 -15 12 -15 10 1 -21 21 -41 83
-103 95 -95 5 3 31 0 58 -6 65 -14 121 1 170 45 20 19 41 34 47 35 11 1 15 28
18 107 1 29 5 50 8 48 4 -2 9 3 12 11 4 9 1 12 -7 9 -8 -3 -17 -1 -20 4 -3 5
2 9 11 8 20 -1 27 40 10 51 -6 3 -7 1 -3 -5 3 -6 2 -13 -3 -16 -5 -3 -12 1
-15 10 -3 8 -10 13 -15 9 -5 -3 -12 -1 -16 5 -3 5 -1 10 4 10 6 0 11 5 11 11
0 5 -3 8 -7 6 -5 -3 -9 6 -10 20 -1 20 1 23 8 12 8 -11 9 -9 6 6 -2 11 -8 19
-15 18 -7 -2 -9 4 -5 14 5 12 2 15 -10 10 -9 -3 -19 -2 -22 3 -9 15 -58 12
-83 -5z"/>
<path d="M8170 7354 c-23 -20 -30 -34 -28 -53 2 -14 9 -27 16 -27 25 -3 27 -5
12 -14 -12 -7 -11 -12 5 -30 21 -23 60 -23 60 0 1 8 6 14 12 13 6 -1 9 7 6 20
-3 16 -2 18 5 9 7 -11 10 -10 16 3 11 30 6 51 -17 73 -13 12 -27 22 -31 22 -5
0 2 -9 15 -20 l24 -20 -33 16 c-18 9 -30 20 -27 25 11 16 -3 10 -35 -17z"/>
<path d="M7419 7267 c-35 -24 -40 -37 -43 -119 -1 -54 -15 -54 -17 0 -1 25 -3
30 -6 13 -3 -12 -2 -34 1 -47 7 -26 63 -94 78 -94 5 0 -4 12 -21 26 -17 14
-31 30 -31 36 0 6 9 -1 20 -15 11 -14 34 -28 50 -32 16 -4 32 -10 35 -15 3 -4
-5 -6 -17 -3 -13 3 -19 1 -13 -4 6 -4 16 -21 23 -37 7 -16 16 -26 19 -22 4 3
19 -6 34 -20 43 -41 112 -44 164 -9 22 15 33 20 25 11 -45 -55 -139 -60 -191
-10 -16 15 -29 24 -29 18 1 -5 17 -21 37 -36 41 -32 97 -37 142 -13 32 16 81
70 81 88 0 7 -5 6 -11 -3 -9 -12 -10 -12 -5 3 3 10 7 31 7 45 1 27 1 27 9 -3
6 -22 7 -15 4 25 -1 30 -3 59 -4 64 0 5 -2 7 -6 4 -3 -3 -22 -1 -42 4 -20 5
-53 13 -72 18 l-35 9 35 -4 c19 -2 51 -6 70 -9 33 -5 34 -5 5 3 -16 5 -44 14
-62 19 -17 6 -34 8 -36 6 -2 -3 -7 2 -11 11 -4 10 -2 14 5 9 7 -4 10 -1 7 7
-3 8 -11 13 -17 11 -7 -1 -10 2 -6 8 9 15 -12 38 -56 61 -50 25 -79 24 -120
-4z"/>
<path d="M12155 7229 c-20 -18 -34 -38 -31 -45 3 -8 0 -13 -7 -11 -8 1 -12
-12 -12 -38 0 -26 4 -39 12 -38 7 2 10 -3 7 -11 -7 -17 72 -66 105 -66 45 0
131 68 131 103 0 8 -3 7 -9 -2 -5 -8 -8 1 -7 27 0 22 5 38 10 35 5 -3 7 0 5 6
-3 7 -9 13 -14 13 -6 0 -21 9 -34 19 -37 29 -111 26 -153 -7 l-33 -26 33 31
c27 26 40 31 81 31 34 0 56 -6 75 -21 14 -11 26 -17 26 -12 0 18 -60 43 -104
43 -37 0 -52 -6 -81 -31z"/>
<path d="M3955 7173 c-28 -4 -89 -43 -68 -43 6 0 16 7 23 15 7 8 22 14 34 14
21 -2 21 -2 -1 -6 -12 -2 -27 -11 -33 -19 -7 -8 -20 -14 -29 -15 -24 0 -79
-75 -87 -116 -4 -20 -1 -67 6 -105 12 -62 19 -74 65 -122 70 -73 120 -96 210
-96 66 0 76 3 121 35 27 19 46 35 41 35 -4 0 -26 -13 -49 -30 -36 -27 -49 -30
-113 -30 -47 0 -84 6 -106 17 -41 20 -109 72 -109 83 0 4 14 -5 32 -22 53 -49
103 -68 183 -68 65 0 76 3 116 32 24 17 52 42 62 55 10 12 23 22 29 20 6 -1
13 4 16 12 3 9 0 11 -9 6 -8 -4 -4 2 9 14 12 12 22 27 22 33 0 7 -7 3 -16 -8
-14 -18 -14 -18 -3 5 7 15 9 47 6 85 -4 38 -2 54 3 41 5 -11 9 -15 9 -8 1 18
-10 43 -18 39 -4 -3 -14 10 -24 27 l-17 32 20 -24 c11 -13 20 -19 20 -15 -1
12 -29 49 -38 49 -4 0 -24 13 -44 28 -63 49 -154 66 -263 50z"/>
<path d="M5140 7095 c-19 -7 -36 -18 -38 -25 -3 -8 0 -10 7 -6 17 11 13 0 -6
-15 -11 -10 -14 -10 -9 -1 4 6 5 12 2 12 -8 0 -36 -57 -36 -72 1 -7 7 1 15 17
7 17 14 26 14 20 1 -5 -6 -23 -14 -38 -11 -22 -12 -34 -3 -50 8 -16 8 -22 0
-25 -7 -2 -22 -13 -34 -24 l-23 -20 25 16 c26 17 75 21 84 8 3 -5 -8 -7 -23
-4 -16 2 -39 -2 -52 -9 -13 -7 -29 -12 -36 -11 -7 2 -20 -12 -29 -29 -25 -49
-5 -139 30 -139 6 0 4 5 -4 10 -8 5 -10 10 -4 10 6 0 19 -9 29 -20 13 -15 31
-20 66 -20 41 0 51 4 78 35 20 23 31 47 32 68 l1 32 8 -30 c6 -23 8 -25 9 -8
1 28 -9 54 -19 48 -4 -2 -15 4 -24 14 -16 18 -14 19 44 32 33 7 60 17 60 22 0
4 4 5 10 2 15 -9 40 63 40 116 0 27 -3 49 -7 49 -5 0 -6 -22 -5 -49 2 -27 0
-57 -5 -66 -7 -11 -8 1 -5 38 4 49 1 60 -23 91 -25 33 -32 36 -74 35 -25 -1
-62 -7 -81 -14z"/>
<path d="M2696 7046 c18 -8 35 -19 39 -26 4 -7 -4 -5 -18 4 -16 11 -35 15 -53
11 -23 -5 -26 -4 -14 5 12 9 12 11 1 8 -8 -2 -16 -11 -17 -19 -2 -7 -8 -27
-13 -44 l-11 -30 5 35 c4 25 2 31 -5 20 -16 -25 -12 -47 16 -79 34 -41 83 -43
113 -5 12 15 21 32 21 38 0 6 -5 4 -10 -4 -7 -12 -10 -8 -10 15 0 23 3 27 10
15 8 -13 10 -13 10 2 0 20 -55 68 -78 68 -9 -1 -3 -7 14 -14z"/>
<path d="M6839 6913 c-11 -15 -11 -16 1 -5 20 18 44 15 71 -9 l24 -20 -27 16
c-24 15 -32 15 -65 3 -46 -16 -53 -24 -53 -65 0 -23 8 -38 31 -57 17 -14 34
-26 38 -26 4 0 12 -19 18 -42 10 -38 10 -41 -3 -24 -9 13 -14 15 -14 6 0 -7
18 -30 40 -52 48 -45 96 -51 145 -18 17 11 26 20 20 20 -5 -1 -19 -7 -29 -15
-27 -21 -75 -19 -113 5 -18 11 -33 22 -33 25 0 2 15 -4 33 -15 17 -11 46 -20
62 -20 35 1 107 39 113 61 2 8 -3 5 -12 -6 -17 -19 -17 -19 -5 4 6 13 9 41 6
62 -3 22 -1 37 4 33 16 -10 9 13 -8 27 -14 12 -16 12 -8 0 5 -8 -6 -4 -24 9
-24 16 -46 23 -74 22 -22 -1 -38 0 -35 3 10 11 79 8 90 -3 7 -7 17 -12 22 -12
30 0 -41 32 -74 33 -21 1 -42 6 -47 11 -5 5 -3 6 5 2 24 -14 11 13 -19 38 -36
30 -61 33 -80 9z"/>
<path d="M4435 6853 c-11 -3 -24 -10 -30 -15 -7 -8 -4 -9 8 -5 11 4 16 3 12
-3 -3 -6 -15 -10 -26 -10 -10 0 -19 -5 -19 -11 0 -5 5 -7 10 -4 14 9 12 -15
-5 -50 l-14 -30 5 30 c4 28 4 28 -7 8 -15 -29 1 -69 45 -112 28 -28 40 -32 91
-33 55 -2 60 0 86 31 15 19 26 38 23 45 -2 6 1 25 6 41 l10 30 -4 -35 c-4 -30
-3 -32 6 -13 14 28 4 64 -27 102 -17 20 -31 28 -42 24 -9 -4 -14 -2 -11 3 6
10 -84 15 -117 7z"/>
<path d="M5778 6834 c-55 -29 -65 -102 -23 -152 35 -41 68 -48 117 -22 22 11
37 16 34 11 -11 -18 -78 -43 -101 -37 -12 3 -37 22 -54 41 -17 20 -31 32 -31
27 0 -11 36 -49 65 -68 16 -11 34 -14 52 -9 39 9 85 45 79 61 -3 8 0 13 6 11
6 -1 13 4 16 12 3 9 0 11 -7 7 -8 -6 -10 0 -6 17 4 14 2 36 -5 49 -11 22 -10
22 4 4 9 -11 16 -15 16 -8 0 6 -10 23 -23 37 -27 33 -97 42 -139 19z"/>
<path d="M7355 6835 c-27 -7 -53 -11 -57 -9 -8 5 -58 -54 -58 -69 0 -6 7 -2
16 9 15 18 15 18 5 -3 -6 -12 -12 -37 -12 -55 l-2 -33 -7 35 c-7 33 -7 33 -9
7 -2 -52 27 -85 86 -98 46 -11 59 -10 89 4 19 10 40 14 46 11 7 -4 8 -2 4 4
-4 7 -1 12 7 12 14 0 19 27 19 107 0 13 5 20 10 17 20 -13 -13 35 -38 55 -31
24 -32 24 -99 6z"/>
<path d="M7910 6820 c10 -7 11 -10 3 -10 -7 0 -13 -8 -14 -17 0 -15 -2 -15 -9
2 -6 13 -9 15 -9 5 -1 -8 -12 -20 -26 -27 -16 -7 -23 -7 -18 -1 3 7 1 8 -5 4
-19 -12 -14 -36 6 -30 14 5 14 4 2 -4 -8 -6 -17 -9 -22 -6 -10 7 -28 -30 -28
-59 0 -14 7 -30 15 -37 8 -7 15 -18 15 -26 0 -7 5 -16 12 -20 7 -5 8 -3 3 7
-8 12 -6 12 8 0 9 -7 15 -17 12 -21 -9 -14 16 -23 28 -11 9 9 7 10 -7 5 -14
-5 -17 -4 -12 5 14 22 31 5 31 -31 0 -20 -3 -34 -7 -31 -5 2 -8 11 -8 20 0 9
-3 14 -6 10 -12 -12 8 -46 29 -49 13 -2 22 -10 22 -21 0 -36 71 -50 109 -22
11 8 15 15 9 15 -7 0 -15 -4 -18 -10 -8 -12 -65 -13 -84 -1 -10 6 -1 8 25 4
43 -5 104 20 112 47 2 9 -3 6 -12 -5 -15 -19 -16 -19 -6 9 6 16 8 38 4 49 -4
13 -2 17 5 13 21 -13 11 10 -14 34 -14 13 -23 30 -21 36 9 23 -33 64 -62 63
l-27 -2 27 -4 c14 -2 32 -12 39 -21 11 -14 11 -15 -1 -4 -8 6 -28 12 -46 12
-21 0 -37 7 -47 23 -15 21 -15 21 -4 -10 9 -25 9 -35 -1 -45 -9 -9 -7 -14 12
-22 l25 -11 -25 -18 c-24 -18 -24 -18 -33 5 -6 16 -5 28 5 39 18 21 18 39 -3
68 -9 14 -11 21 -5 17 8 -5 12 0 12 13 0 14 6 21 20 21 10 0 24 8 30 18 8 11
10 12 7 2 -2 -8 -14 -20 -26 -26 -13 -7 -19 -14 -13 -18 13 -8 56 40 47 53 -3
6 -13 11 -21 11 -8 0 -13 4 -10 8 2 4 -5 9 -17 9 -17 2 -19 0 -7 -7z"/>
<path d="M5522 6790 c-23 -17 -42 -27 -42 -23 0 5 -5 1 -10 -7 -5 -8 -10 -36
-10 -61 0 -41 5 -50 46 -91 l46 -46 46 16 c59 20 102 42 82 42 -9 0 -20 -4
-25 -9 -14 -12 -107 -42 -100 -32 2 5 17 12 32 16 16 3 42 13 60 22 17 8 39
16 47 17 20 3 21 10 6 34 -11 16 -11 16 -6 -1 3 -11 2 -15 -4 -12 -6 3 -7 17
-4 30 3 12 -1 36 -10 53 -19 36 -22 66 -5 42 8 -12 10 -12 7 -1 -4 16 -59 39
-94 40 -12 1 -40 -13 -62 -29z"/>
<path d="M5185 6709 c-28 -35 -34 -38 -81 -39 -34 0 -56 5 -64 15 -7 9 -15 13
-18 10 -11 -11 34 -34 66 -35 17 0 32 -5 32 -11 0 -8 6 -7 18 2 15 13 16 12 3
-3 -7 -10 -11 -27 -8 -38 7 -27 -1 -25 -13 3 -6 16 -9 18 -9 5 -1 -10 13 -33
30 -53 38 -43 84 -48 117 -12 22 23 30 43 14 33 -5 -3 -6 8 -4 25 3 20 -2 37
-14 52 -16 19 -17 20 -1 8 15 -12 20 -11 38 5 24 21 46 12 66 -27 8 -15 13
-18 13 -8 0 16 -40 59 -55 59 -5 0 -16 -7 -26 -16 -11 -10 -23 -13 -31 -8 -7
4 -30 8 -52 7 -24 -1 -34 2 -27 7 7 4 21 6 30 5 9 -1 10 0 4 2 -16 6 -16 16
-1 31 6 6 10 13 7 16 -2 2 -17 -14 -34 -35z"/>
<path d="M9701 6724 c-23 -30 -28 -60 -8 -48 6 4 3 -2 -7 -14 -23 -26 -34 -29
-15 -4 11 14 10 13 -9 -2 -22 -19 -30 -32 -14 -22 5 3 7 -16 4 -43 -4 -44 -2
-49 29 -75 43 -36 91 -31 132 14 15 17 27 27 27 22 0 -4 -5 -13 -12 -20 -8 -8
-8 -12 -1 -12 11 0 33 51 33 75 0 7 -8 21 -17 32 -10 10 -15 14 -10 9 4 -6 7
-15 7 -20 0 -6 -6 -2 -14 9 -14 20 -16 42 -4 38 19 -7 14 31 -8 57 -34 40 -83
42 -113 4z"/>
<path d="M3354 6710 c-27 -11 -54 -48 -54 -75 1 -21 22 -55 35 -55 5 0 0 9 -9
19 -10 11 -16 29 -13 43 4 22 4 22 6 -3 2 -41 33 -63 78 -56 63 11 81 56 41
101 -27 29 -55 38 -84 26z"/>
<path d="M5779 6590 c18 -4 43 -18 55 -31 l21 -22 -29 21 c-16 12 -39 22 -51
22 -51 0 -99 -74 -72 -110 7 -8 1 -6 -12 5 l-24 20 12 -22 c10 -20 9 -23 -7
-23 -23 0 -72 -50 -72 -74 0 -10 13 -30 28 -46 24 -24 36 -28 83 -27 38 0 47
2 29 7 -14 4 -36 5 -50 3 -14 -2 -34 3 -45 12 -19 14 -19 15 8 4 21 -9 33 -9
53 -1 20 10 24 10 19 0 -4 -7 1 -4 9 6 9 11 16 30 16 43 0 17 6 23 22 23 23 0
88 45 88 61 0 6 -4 8 -8 5 -4 -2 -6 12 -3 32 l5 37 7 -30 7 -30 1 29 c1 39
-56 96 -95 95 -28 -1 -28 -1 5 -9z"/>
<path d="M6709 6527 c-51 -33 -89 -116 -89 -192 0 -54 3 -64 28 -87 15 -14 45
-29 67 -32 29 -5 36 -4 25 3 -8 6 -27 11 -41 11 -35 0 -69 39 -69 78 0 17 4
33 8 36 4 2 6 -11 4 -30 -7 -59 12 -71 142 -91 41 -6 109 12 127 34 6 7 16 13
22 13 15 0 -34 -35 -70 -49 -18 -7 -30 -17 -27 -22 3 -5 -6 -4 -20 2 -14 7
-33 8 -43 4 -10 -5 -24 -7 -30 -6 -7 1 -13 -3 -13 -8 0 -6 -7 -8 -15 -5 -13 5
-13 2 0 -23 20 -40 60 -76 80 -71 9 1 16 8 16 13 0 6 6 17 14 25 7 8 15 24 18
35 4 19 5 18 6 -2 0 -12 -4 -25 -10 -28 -6 -5 -2 -13 11 -22 24 -17 33 -12 37
22 3 18 -1 25 -14 26 -16 0 -16 1 1 8 19 7 19 8 -2 13 -33 9 -27 21 21 43 23
12 51 35 62 53 12 18 28 31 40 31 l20 0 -20 -10 -20 -9 20 3 c11 1 20 9 20 17
1 8 5 14 11 13 5 -1 10 6 10 16 0 20 -46 28 -57 10 -4 -7 -9 13 -10 44 -2 30
0 53 5 50 5 -3 7 0 4 8 -3 8 -10 14 -15 14 -6 0 -15 4 -20 9 -5 5 -3 6 5 2 6
-4 12 -2 12 3 0 6 -7 11 -15 11 -9 0 -33 9 -55 20 -52 27 -134 27 -177 0 -18
-11 -33 -17 -33 -15 0 3 15 14 33 25 43 27 125 27 177 0 56 -28 64 -24 10 5
-61 33 -144 34 -191 2z"/>
<path d="M9299 6538 c-1 -2 -3 -19 -3 -38 -2 -23 -7 -35 -17 -35 -8 0 -15 -12
-17 -27 -2 -16 -9 -28 -15 -28 -19 0 -76 -59 -83 -86 -3 -13 -1 -38 6 -54 6
-16 9 -34 4 -41 -5 -9 -2 -10 10 -6 10 4 15 3 11 -3 -3 -6 -15 -10 -26 -10
-13 0 -25 -11 -34 -32 -7 -18 -12 -36 -9 -39 2 -3 -8 -4 -21 -1 -19 3 -27 -1
-34 -19 -6 -14 -10 -18 -10 -8 -1 20 19 39 44 40 17 1 18 2 2 6 -20 5 -57 -23
-57 -43 0 -20 38 -36 68 -29 22 4 34 -1 57 -25 26 -27 35 -30 84 -29 l56 2
-57 6 c-40 4 -64 13 -82 30 -14 14 -26 28 -26 32 0 4 14 -6 30 -23 28 -28 34
-29 98 -26 53 2 67 0 67 -11 0 -8 6 -15 13 -17 7 -1 8 0 2 3 -7 3 -5 10 6 17
19 15 10 40 -12 32 -8 -3 -14 -1 -14 5 0 6 -5 7 -12 3 -6 -4 -8 -3 -5 4 4 5
15 8 26 5 17 -4 18 -1 11 34 -3 22 -10 45 -14 52 -4 6 -2 19 6 28 12 15 11 15
-9 3 -12 -8 -19 -19 -15 -25 3 -5 -2 -3 -12 5 -14 11 -15 15 -5 18 8 2 21 6
29 9 8 4 20 5 27 4 12 -2 13 2 16 76 1 22 5 39 9 37 4 -2 9 0 13 6 3 5 1 11
-4 11 -21 3 -26 5 -46 16 -19 12 -19 12 -1 13 10 0 33 -9 51 -20 29 -18 35
-19 60 -6 30 16 45 33 45 53 0 17 -52 63 -70 62 -10 0 -8 -3 5 -8 11 -5 29
-18 39 -30 16 -17 17 -25 7 -43 l-11 -23 6 23 c6 24 -18 62 -40 62 -6 0 -22 9
-36 20 -14 11 -35 20 -48 20 -12 0 -25 7 -28 15 -4 8 -14 15 -23 15 -14 0 -14
2 -1 10 10 6 11 10 3 10 -7 0 -14 -1 -14 -2z"/>
<path d="M313 6450 c-32 -13 -29 -22 3 -10 39 15 108 12 130 -6 18 -14 18 -15
-5 -3 -21 10 -76 8 -154 -4 -23 -4 -87 -54 -87 -68 0 -6 5 -7 12 -3 7 4 8 3 4
-5 -4 -6 -12 -9 -17 -6 -14 9 -29 -40 -28 -88 2 -41 2 -41 8 10 9 71 19 76 13
7 -4 -46 -1 -61 17 -87 l22 -32 -25 28 c-42 46 -30 14 14 -35 65 -74 131 -95
217 -67 37 12 123 100 123 126 0 14 -2 15 -9 5 -5 -8 -8 5 -7 35 1 26 -2 62
-6 78 l-7 30 14 -30 c10 -22 14 -25 15 -11 0 26 -43 81 -93 117 -42 31 -106
38 -154 19z"/>
<path d="M8240 6443 c42 -8 42 -19 0 -15 -35 4 -40 1 -46 -22 -9 -38 19 -76
54 -75 27 2 27 2 2 6 -39 7 -42 18 -5 18 18 0 32 -2 30 -4 -7 -7 26 -75 47
-98 31 -33 69 -43 106 -27 18 7 32 15 32 18 0 3 -15 -1 -33 -9 -27 -11 -37
-11 -63 0 -18 7 -35 19 -39 26 -5 7 2 5 16 -4 28 -20 60 -21 106 -5 34 13 49
40 40 75 -3 10 -5 5 -6 -14 -2 -49 -16 -47 -16 2 0 24 4 41 9 38 5 -3 7 0 4 8
-3 8 -10 14 -15 14 -6 0 -15 4 -20 9 -5 5 -3 6 5 2 6 -4 12 -3 12 2 0 11 -33
42 -45 42 -5 0 0 -7 11 -16 18 -15 18 -15 -3 -5 -30 15 -65 14 -89 -4 -12 -8
-25 -11 -29 -7 -5 4 -6 0 -3 -9 4 -9 1 -16 -6 -16 -6 0 -12 8 -12 18 0 10 4
15 8 13 4 -3 8 -1 8 4 0 17 -37 42 -61 41 l-24 -2 25 -4z"/>
<path d="M6390 6382 c0 -6 10 -8 23 -6 12 2 15 1 7 -2 -8 -4 -22 -13 -31 -21
-9 -7 -20 -13 -25 -12 -15 3 -44 -12 -44 -24 0 -5 10 -2 23 9 l22 19 -19 -22
c-12 -14 -17 -32 -13 -48 5 -30 -8 -21 -16 10 -4 19 -5 19 -6 -2 0 -12 11 -35
25 -52 32 -38 90 -43 119 -11 20 23 30 86 15 95 -6 4 -10 16 -10 28 0 18 -2
19 -10 7 -10 -15 -10 -14 -14 23 -1 14 -46 23 -46 9z"/>
<path d="M8713 6329 c3 -10 -6 -27 -24 -45 -34 -33 -37 -59 -8 -90 l21 -23
-21 -27 c-38 -48 -23 -80 43 -91 44 -7 66 9 66 48 0 20 -8 34 -26 46 -25 16
-28 16 -58 0 -31 -17 -31 -17 -9 2 l22 18 -24 23 c-14 13 -25 33 -24 44 1 19
2 18 8 -3 3 -13 18 -33 32 -44 22 -16 31 -17 50 -7 22 10 22 10 6 -3 -13 -11
-14 -16 -5 -19 14 -5 58 54 58 79 0 18 -45 74 -53 66 -4 -3 4 -14 16 -24 22
-19 22 -19 -10 -2 -31 17 -35 17 -63 1 -38 -22 -39 -13 -1 10 27 16 28 19 14
37 -11 14 -14 15 -10 4z"/>
<path d="M6105 6317 c-11 -8 -24 -15 -30 -15 -5 0 -11 -6 -13 -14 -2 -9 0 -8
8 2 8 12 9 10 5 -10 -14 -60 80 -114 128 -74 l22 18 -22 -24 c-21 -22 -26 -23
-63 -13 -29 7 -40 7 -40 -1 0 -6 19 -12 42 -13 56 -4 98 34 98 86 0 20 -4 42
-9 50 -13 21 -101 26 -126 8z"/>
<path d="M7583 6304 c-15 -14 -22 -23 -15 -19 7 4 12 0 12 -10 0 -9 -4 -13
-10 -10 -5 3 -10 1 -10 -4 0 -11 28 -16 60 -11 8 1 12 -1 8 -5 -4 -4 -24 -10
-45 -12 -54 -6 -84 -36 -73 -74 5 -18 5 -27 -1 -24 -5 4 -9 13 -9 22 0 9 -3
14 -6 10 -3 -3 -3 -14 1 -25 7 -23 77 -40 98 -25 14 10 22 10 55 -1 30 -10 54
10 50 43 -2 21 -8 26 -33 26 -21 0 -33 -7 -41 -24 l-12 -24 -4 29 c-4 40 -48
56 -80 28 l-23 -19 18 21 c17 21 72 41 61 23 -3 -5 -1 -9 5 -9 13 0 81 70 81
83 0 5 -9 -1 -20 -14 -19 -22 -20 -22 -8 -2 16 29 4 40 -32 26 -17 -6 -28 -7
-25 -2 3 5 20 13 38 18 24 7 27 9 10 10 -12 1 -35 -11 -50 -25z"/>
<path d="M2900 6182 c-19 -9 -35 -25 -35 -34 0 -9 -4 -20 -9 -25 -5 -4 -6 -3
-2 5 4 6 3 12 -1 12 -5 0 -14 -14 -20 -31 -20 -52 2 -98 62 -131 28 -15 42
-28 32 -28 -10 0 -22 -12 -29 -27 -15 -38 -16 -98 -1 -98 6 0 15 -4 20 -9 5
-5 2 -6 -5 -1 -10 5 -13 1 -10 -16 1 -13 9 -24 17 -24 8 0 16 -7 18 -15 4 -13
3 -13 -7 0 -9 13 -11 12 -8 -4 2 -11 13 -21 26 -23 30 -4 73 -33 66 -44 -3 -5
1 -11 8 -14 24 -9 128 -11 128 -3 0 4 -27 7 -60 7 -34 -1 -64 1 -67 5 -3 3 21
6 55 6 43 0 72 6 99 21 35 19 28 9 -14 -18 -17 -12 -17 -12 2 -6 30 9 56 35
51 49 -5 13 22 42 33 36 3 -2 7 2 10 9 2 6 0 9 -5 6 -5 -3 -9 21 -9 53 0 69
14 70 17 2 1 -41 2 -42 5 -12 3 19 0 52 -7 73 -12 40 -64 107 -84 107 -6 0 0
-9 14 -20 17 -14 2 -10 -46 12 -38 18 -64 34 -57 36 7 2 23 -4 35 -12 12 -9
27 -16 33 -16 5 0 -5 9 -22 20 -18 11 -33 28 -33 37 0 10 -5 25 -10 33 -7 11
-9 5 -5 -20 5 -35 1 -29 -15 23 -6 17 -6 25 0 22 6 -4 10 -2 10 4 0 17 -68 63
-87 58 -16 -4 -16 -5 2 -6 11 -1 31 -11 45 -22 l25 -21 -25 14 c-42 25 -95 30
-135 14 -20 -9 -33 -11 -30 -6 3 5 27 16 53 24 26 8 38 15 27 15 -11 1 -36 -7
-55 -17z"/>
<path d="M5581 6165 c-22 -24 -47 -70 -34 -62 5 3 24 -10 42 -28 19 -20 42
-35 56 -35 29 0 85 57 84 84 -1 20 -1 21 -6 1 -7 -30 -54 -75 -77 -75 -27 0
-76 49 -75 74 1 20 1 20 6 1 7 -30 44 -65 68 -65 44 0 89 86 59 111 -25 20
-103 16 -123 -6z"/>
<path d="M10154 6144 c-44 -46 -44 -80 -1 -122 24 -24 42 -32 67 -32 51 1 100
49 100 97 0 24 -64 87 -82 80 -9 -4 -9 -6 3 -6 8 -1 26 -13 40 -28 l24 -28
-25 22 c-37 32 -73 38 -107 17 -15 -10 -23 -13 -18 -6 6 6 24 18 40 26 22 12
25 16 11 16 -10 0 -34 -16 -52 -36z"/>
<path d="M5258 6145 c-77 -51 -89 -106 -34 -161 46 -46 91 -47 141 -2 36 31
37 36 20 83 -6 17 -5 17 5 5 9 -13 11 -12 7 5 -2 11 -9 19 -16 17 -7 -1 -10 2
-6 7 9 15 -17 51 -37 51 -9 0 -20 5 -23 10 -9 14 -15 12 -57 -15z"/>
<path d="M7833 6038 c8 -5 5 -8 -10 -8 -23 0 -43 -26 -43 -54 0 -28 54 -78 84
-78 30 0 76 37 76 61 0 14 -1 14 -10 1 -7 -11 -10 -7 -10 17 0 21 -7 37 -22
47 -12 9 -18 16 -12 16 13 0 39 -28 47 -50 4 -11 6 -9 6 5 1 27 -35 49 -81 50
-22 1 -33 -2 -25 -7z"/>
<path d="M8709 6037 c7 -9 18 -14 25 -10 6 3 -7 -13 -29 -36 -46 -49 -62 -55
-19 -8 20 22 17 21 -8 -5 -21 -20 -38 -43 -38 -50 0 -10 2 -10 9 0 5 8 6 -9 3
-40 -3 -36 -12 -62 -28 -81 -29 -35 -29 -38 -3 -71 20 -25 62 -35 73 -18 3 5
-8 7 -23 4 -16 -2 -31 0 -34 5 -3 5 7 8 22 5 16 -2 32 1 35 6 4 7 21 4 49 -8
23 -11 49 -20 57 -20 36 0 93 23 125 51 19 17 38 29 42 27 14 -5 33 94 24 127
-7 26 -9 22 -9 -27 0 -32 -6 -65 -12 -75 -9 -16 -10 -15 -5 5 9 31 8 119 -1
134 -5 7 -3 8 5 3 10 -6 11 -3 2 13 -15 28 -82 82 -101 82 -8 0 -1 -7 16 -16
18 -9 43 -27 55 -41 18 -20 14 -19 -19 7 -40 32 -49 34 -122 36 -43 1 -84 5
-91 10 -12 6 -12 5 0 -9z"/>
<path d="M7616 6021 c-3 -4 5 -6 18 -4 33 7 86 -41 86 -77 0 -16 -4 -31 -8
-34 -4 -2 -6 10 -4 28 3 26 -2 37 -23 54 -43 34 -126 16 -125 -27 1 -10 6 -6
16 12 8 15 17 27 20 27 2 0 0 -9 -6 -19 -5 -11 -10 -30 -10 -43 0 -18 -2 -20
-10 -8 -9 13 -10 13 -10 -1 0 -35 98 -97 113 -71 4 5 -7 9 -24 9 -19 0 -38 9
-52 23 l-22 24 22 -18 c21 -18 107 -30 97 -14 -3 4 1 8 9 8 17 0 27 21 27 54
0 45 -95 109 -114 77z"/>
<path d="M4062 5947 c-21 -22 -30 -43 -14 -34 4 3 7 -8 8 -25 1 -20 -2 -25 -7
-16 -6 8 -9 1 -9 -22 1 -28 3 -32 10 -18 10 16 12 16 40 0 28 -16 32 -16 63 1
l32 17 -24 -20 c-28 -24 -48 -25 -81 -4 l-25 16 24 -21 c31 -28 53 -26 90 5
28 24 44 53 21 39 -6 -4 -6 4 1 21 24 66 -79 115 -129 61z"/>
<path d="M5797 5918 c-34 -27 -53 -59 -25 -42 7 4 8 3 4 -5 -4 -6 -11 -9 -16
-6 -4 3 -15 -6 -24 -20 -21 -32 -20 -42 2 -18 9 10 14 14 10 9 -5 -6 -9 -33
-9 -60 -1 -44 -2 -47 -9 -21 l-8 30 -1 -28 c-2 -56 66 -139 129 -157 42 -12
106 -2 122 19 11 14 11 14 -2 5 -21 -16 -75 -24 -110 -18 -16 4 -46 22 -67 41
l-38 34 42 -32 c36 -27 51 -32 96 -32 35 0 63 6 82 19 21 14 27 15 20 4 -5
-10 -1 -8 13 4 12 10 20 23 19 30 -1 6 8 11 19 10 16 -1 20 3 16 18 -3 11 -8
15 -11 9 -4 -5 -6 21 -6 58 0 38 3 67 8 64 4 -2 7 0 7 4 0 10 -83 93 -92 93
-4 0 10 -17 30 -37 22 -22 25 -27 7 -12 -16 14 -38 29 -48 32 -9 4 -16 12 -15
19 2 9 -13 13 -52 14 -48 2 -61 -2 -93 -28z"/>
<path d="M635 5881 c-38 -16 -84 -70 -91 -107 -8 -45 17 -104 44 -104 10 0 27
-7 38 -15 27 -20 63 -19 109 5 21 11 34 15 28 9 -8 -8 -8 -20 -1 -41 8 -23 13
-27 20 -16 6 9 8 6 6 -11 -2 -19 6 -31 32 -49 33 -22 53 -24 91 -8 12 5 18 1
22 -14 3 -11 11 -19 18 -18 7 2 13 -3 14 -11 0 -12 25 -28 47 -30 3 -1 20 10
36 24 28 24 29 27 20 67 -6 24 -18 50 -26 58 -14 14 -14 13 -1 -4 13 -18 13
-19 -9 -7 -18 10 -29 9 -54 -3 -17 -9 -34 -14 -36 -11 -3 3 0 5 7 5 7 0 10 4
7 9 -4 5 -1 20 4 33 10 22 10 22 5 -4 -4 -23 -2 -25 16 -21 11 3 16 9 11 12
-5 3 -11 15 -13 26 -3 11 -9 20 -16 20 -6 0 -15 4 -20 9 -5 5 -3 6 5 2 21 -12
13 10 -10 30 -22 19 -22 19 -8 0 15 -19 14 -19 -12 -2 -36 24 -90 14 -116 -19
-16 -21 -21 -22 -26 -9 -3 8 -2 13 3 10 5 -3 14 1 20 8 8 9 8 17 2 20 -5 3
-12 0 -14 -6 -3 -7 -3 3 -1 22 6 44 -12 78 -56 108 -40 27 -88 25 -124 -5
l-21 -18 19 22 c23 28 76 39 107 23 46 -24 79 -64 86 -102 3 -21 9 -41 13 -43
12 -7 -9 74 -25 99 -18 26 -85 66 -111 65 -11 0 -28 -4 -39 -8z"/>
<path d="M6713 5860 c-49 -11 -66 -29 -59 -62 5 -25 3 -28 -22 -27 l-27 1 25
9 25 8 -25 -2 c-14 -1 -25 -8 -25 -16 0 -8 -6 -16 -14 -19 -9 -3 -11 0 -5 9 7
12 5 12 -9 0 -9 -7 -14 -17 -11 -22 3 -5 0 -8 -7 -7 -6 2 -14 -3 -17 -11 -3
-9 0 -11 9 -6 8 5 11 4 6 -1 -5 -5 -14 -9 -20 -9 -17 0 -21 -52 -7 -85 6 -15
24 -39 38 -52 l27 -23 -20 24 -20 24 27 -18 c15 -9 25 -21 22 -26 -10 -17 47
-31 80 -19 46 16 95 67 89 93 -4 17 -2 19 5 8 8 -11 11 -10 14 5 2 10 2 30 -1
44 -4 23 -5 23 -12 5 -7 -19 -8 -19 -8 1 -1 12 -10 33 -22 48 -20 26 -19 28
11 30 11 1 15 12 14 40 -2 49 -19 65 -61 56z"/>
<path d="M6812 5787 c-12 -13 -22 -28 -22 -34 0 -16 40 -63 53 -63 7 0 1 10
-13 21 l-25 20 33 -16 c24 -11 37 -13 51 -5 14 7 22 7 26 0 9 -15 60 -6 60 11
0 8 5 21 10 29 5 8 8 24 7 35 -2 17 -1 18 8 5 10 -13 11 -13 7 0 -4 15 -38 17
-107 9 -14 -2 -34 0 -46 4 -14 5 -27 1 -42 -16z"/>
<path d="M8045 5700 c-14 -6 -7 -7 21 -3 25 3 44 1 48 -6 5 -7 1 -9 -8 -5 -22
8 -117 -15 -138 -34 -24 -20 -14 -88 17 -120 30 -32 95 -40 132 -18 l28 17
-25 -21 c-53 -47 -164 0 -173 74 l-4 31 -1 -31 c-3 -44 52 -95 110 -101 37 -4
49 -1 77 22 18 15 30 34 27 41 -3 8 0 13 7 11 8 -1 12 12 12 38 0 28 -4 39
-13 37 -8 -1 -11 2 -7 9 10 15 -45 69 -69 68 -12 0 -30 -4 -41 -9z"/>
<path d="M3928 5687 c22 -12 21 -13 -14 -14 -27 -1 -33 2 -23 9 12 8 12 9 -1
5 -8 -2 -15 -10 -15 -18 -1 -8 -6 -13 -13 -11 -19 3 -25 -23 -12 -48 8 -15 8
-20 1 -16 -24 15 -9 -14 20 -38 39 -33 51 -33 94 5 33 29 47 71 27 83 -5 3 -7
-8 -4 -23 3 -22 -3 -34 -28 -54 -38 -32 -50 -33 -81 -7 l-24 20 32 -17 c31
-17 33 -17 60 3 18 14 28 31 29 50 1 16 5 37 9 47 9 22 9 23 -40 30 -36 5 -38
5 -17 -6z"/>
<path d="M3177 5674 c-15 -8 -25 -19 -23 -23 3 -4 -6 -6 -19 -3 -15 2 -25 0
-25 -7 0 -7 5 -9 10 -6 6 3 10 4 10 1 0 -3 -17 -13 -37 -21 -21 -9 -47 -24
-58 -33 -12 -9 -6 -2 14 16 19 17 31 32 28 32 -11 0 -87 -72 -87 -82 0 -5 5
-6 12 -2 7 4 8 3 4 -5 -4 -6 -11 -9 -16 -6 -5 3 -14 -3 -19 -14 -13 -23 -14
-34 -3 -28 4 3 6 -23 4 -58 -2 -35 1 -74 8 -87 11 -22 10 -22 -4 -4 -27 34
-17 7 14 -38 16 -24 37 -47 47 -50 11 -5 4 8 -17 31 l-35 38 35 -31 c49 -44
77 -56 145 -64 l60 -7 -48 -2 c-26 0 -64 6 -85 14 -32 13 -35 13 -18 0 36 -28
151 -34 151 -8 0 6 19 25 42 42 80 58 116 139 94 216 -6 21 -6 34 -1 29 5 -5
13 -31 19 -59 l10 -50 -4 48 c-3 27 -14 61 -25 77 -11 15 -20 38 -20 50 0 16
-4 20 -15 16 -11 -4 -15 1 -15 18 0 12 -11 33 -25 46 -23 22 -26 22 -70 8 -52
-18 -60 -13 -12 7 17 8 25 14 17 14 -8 0 -28 -7 -43 -15z"/>
<path d="M4905 5670 c-4 -6 -17 -9 -30 -6 -17 4 -33 -4 -66 -35 -24 -22 -36
-38 -26 -35 11 3 15 2 12 -4 -3 -6 -12 -10 -20 -10 -7 0 -28 -12 -47 -26 l-33
-26 33 31 c18 17 29 31 24 31 -13 0 -67 -63 -80 -93 -13 -31 -16 -48 -4 -30 4
6 7 -10 7 -37 0 -26 -4 -46 -9 -43 -4 3 -5 -4 -1 -16 4 -12 0 -34 -9 -52 -22
-45 -30 -95 -17 -116 9 -15 10 -14 5 10 -6 26 22 124 32 114 2 -2 -3 -21 -12
-42 -9 -21 -13 -51 -10 -66 7 -38 -15 -55 -39 -29 -20 22 -65 26 -97 9 -16 -9
-19 -8 -13 3 3 7 -1 4 -9 -6 -9 -11 -16 -25 -16 -30 0 -6 5 -4 10 4 8 11 9 9
5 -10 -9 -38 27 -80 69 -80 17 0 38 6 46 13 11 9 11 8 0 -7 -11 -14 -11 -18
-2 -12 8 5 22 1 35 -11 21 -18 21 -18 7 2 -13 18 -13 19 1 8 8 -7 26 -17 40
-23 21 -9 21 -10 2 -6 -19 3 -20 1 -10 -15 8 -13 13 -15 19 -6 5 8 8 7 8 -4 0
-37 86 -34 109 3 11 18 11 20 -3 15 -9 -4 -15 -2 -13 3 1 5 -7 15 -17 23 -15
11 -16 16 -6 22 8 5 11 4 7 -2 -9 -15 57 -45 79 -36 13 5 15 3 9 -8 -5 -8 3
-4 17 9 22 20 24 28 18 56 -7 32 -7 32 34 35 60 3 57 11 -5 11 -30 0 -60 4
-67 8 -7 5 15 6 47 4 52 -4 68 0 127 29 38 18 79 34 91 35 59 6 123 47 115 74
-3 13 -2 13 7 0 5 -8 8 -17 5 -21 -8 -13 52 -20 80 -10 39 16 43 38 10 72 -33
35 -54 37 -80 7 -19 -23 -19 -23 2 -5 28 23 47 22 70 -5 19 -23 19 -23 -2 -5
-25 21 -48 22 -64 3 -6 -8 -18 -12 -26 -9 -10 3 -14 -2 -14 -19 0 -14 -8 -32
-17 -40 -20 -17 -66 -31 -57 -17 3 5 13 9 23 9 26 0 44 26 39 55 -3 13 -1 22
3 19 5 -3 9 -1 9 5 0 5 -18 12 -39 16 -64 11 -70 29 -19 61 32 21 58 29 100
30 83 4 98 10 98 43 0 19 -7 32 -22 40 -13 6 -15 9 -6 7 15 -4 16 -2 7 12 -6
10 -23 19 -37 20 -14 1 -30 6 -36 11 -7 6 -30 10 -53 9 -22 0 -49 5 -59 11
-11 6 -13 11 -6 11 6 0 12 5 12 11 0 5 -4 7 -10 4 -6 -3 -7 1 -4 9 3 9 11 13
17 9 5 -3 7 -2 4 3 -10 18 -64 14 -88 -5 -33 -26 -63 -29 -85 -10 -11 9 -32
22 -49 28 l-30 11 30 -6 c17 -3 39 -13 50 -22 18 -14 18 -14 -1 7 -24 26 -97
40 -109 21z"/>
<path d="M8663 5539 c-25 -29 -30 -44 -12 -33 23 14 -6 -23 -38 -51 -18 -15
-33 -34 -32 -43 0 -13 3 -11 9 4 9 23 47 54 65 54 5 0 -5 -9 -24 -21 -29 -18
-33 -24 -29 -56 4 -32 3 -33 -10 -17 -13 18 -14 18 -10 0 4 -24 109 -59 156
-52 43 6 69 26 50 37 -10 7 -9 9 5 9 9 0 17 5 17 10 0 6 -8 10 -17 11 -10 0
-13 3 -7 5 14 6 -5 84 -21 84 -6 0 -22 12 -36 26 -16 17 -31 24 -46 21 -28 -5
-30 1 -3 11 11 4 16 12 12 18 -4 7 -15 1 -29 -17z"/>
<path d="M5507 5533 c10 -10 14 -15 9 -10 -6 4 -24 7 -41 7 -40 0 -69 -30 -63
-64 3 -14 1 -23 -3 -20 -13 8 -11 48 3 62 9 9 8 12 -5 12 -13 0 -17 -9 -17
-35 0 -41 23 -65 95 -101 28 -14 59 -34 71 -45 11 -10 24 -19 28 -19 16 0 -53
50 -103 75 -28 14 -51 28 -51 30 0 6 48 -15 77 -33 12 -8 28 -10 34 -6 7 4 9
3 6 -3 -11 -18 26 -42 56 -36 15 3 27 9 27 14 0 6 16 25 35 44 28 29 33 39 26
58 -5 12 -12 22 -17 22 -5 1 -19 4 -31 9 -13 4 -32 2 -45 -4 -22 -11 -22 -11
-3 5 12 10 30 14 45 10 22 -5 23 -4 6 6 -14 9 -26 7 -56 -7 -34 -17 -36 -20
-21 -32 14 -11 13 -12 -6 -2 -12 5 -25 15 -29 22 -4 7 -3 8 4 4 7 -4 12 -3 12
2 0 10 -43 52 -54 52 -5 0 0 -8 11 -17z"/>
<path d="M1226 5509 c3 -5 11 -9 18 -9 7 0 21 -10 32 -22 19 -23 19 -23 -1 -7
-31 26 -58 30 -90 14 l-30 -15 24 20 c13 11 19 20 14 20 -11 0 -53 -43 -53
-54 0 -4 4 -5 9 -2 4 3 6 -7 3 -22 -5 -24 -6 -24 -13 -7 -4 11 -8 15 -8 8 -2
-25 14 -45 71 -93 33 -28 70 -50 82 -50 31 0 76 50 76 84 0 30 -86 130 -120
139 -11 3 -18 1 -14 -4z"/>
<path d="M9876 5501 c-10 -11 -16 -29 -13 -43 4 -22 4 -22 6 3 1 31 19 49 46
48 17 -1 16 -2 -5 -8 -33 -9 -41 -56 -11 -66 12 -3 26 -3 32 1 8 5 9 3 4 -5
-4 -8 -17 -10 -32 -6 -22 5 -23 4 -12 -17 16 -31 24 -38 15 -13 -5 13 -4 16 2
10 12 -12 3 -77 -9 -70 -4 3 -3 -8 2 -25 11 -31 83 -100 105 -100 7 0 21 -3
31 -6 12 -5 15 -4 8 3 -5 6 -26 16 -46 22 -20 7 -45 21 -55 33 -17 19 -15 19
14 -3 26 -18 45 -24 80 -22 28 1 57 -5 74 -15 39 -23 78 -4 78 37 0 16 -4 33
-10 36 -5 3 -10 11 -10 18 0 6 6 3 13 -6 10 -15 12 -12 14 20 1 29 0 33 -7 18
-7 -16 -9 -14 -9 15 -1 26 2 31 9 20 11 -17 13 -1 4 25 -5 13 -9 14 -15 4 -5
-9 -10 -5 -14 14 -4 15 -12 27 -19 27 -7 0 -7 3 2 8 9 6 6 14 -12 31 -20 19
-31 22 -53 16 -15 -5 -36 -7 -46 -6 -9 1 -33 -7 -52 -19 l-34 -21 -12 23 c-7
13 -10 25 -8 28 2 3 -5 6 -17 8 -11 2 -28 -6 -38 -17z"/>
<path d="M5849 5508 c-8 -28 -7 -48 4 -48 9 0 8 -3 -1 -9 -20 -12 -11 -41 20
-64 26 -20 27 -20 55 -1 15 10 34 19 41 20 17 3 52 34 52 46 0 5 -4 6 -10 3
-5 -3 -10 2 -10 12 0 38 -46 57 -69 29 -13 -15 -64 -29 -55 -15 3 5 -3 9 -13
9 -15 0 -16 2 -3 10 10 6 11 10 3 10 -7 0 -13 -1 -14 -2z"/>
<path d="M7258 5430 c18 -4 44 -18 58 -31 23 -22 32 -63 16 -73 -5 -3 -7 8 -4
23 6 39 -40 75 -86 67 -23 -3 -31 -1 -26 7 4 7 -1 4 -12 -5 -15 -13 -19 -27
-16 -57 5 -53 31 -76 85 -74 47 2 77 29 77 68 0 32 -63 85 -98 84 -25 -1 -25
-2 6 -9z"/>
<path d="M6809 5399 c-16 -17 -29 -41 -29 -53 0 -21 46 -76 64 -76 4 0 -6 12
-21 26 l-28 25 33 -22 c28 -20 37 -22 62 -12 40 15 38 6 -2 -12 -21 -9 -26
-14 -15 -15 10 0 32 13 48 29 38 39 38 78 1 114 -38 37 -76 35 -113 -4z"/>
<path d="M3576 5404 c-19 -18 -21 -38 -3 -28 9 6 9 5 0 -7 -8 -10 -30 -14 -77
-13 -36 1 -68 -2 -71 -6 -3 -4 -14 -6 -25 -3 -12 3 -20 0 -20 -6 0 -7 -5 -9
-10 -6 -7 4 -7 12 0 25 5 10 10 25 10 32 0 7 -10 -6 -21 -30 -12 -23 -44 -63
-73 -89 -28 -25 -37 -37 -21 -25 17 11 43 34 59 51 28 30 30 30 50 13 14 -12
17 -13 11 -2 -6 11 -5 12 3 5 8 -8 9 -21 2 -44 -5 -19 -7 -38 -3 -44 3 -6 1
-7 -5 -3 -6 4 -9 21 -7 39 5 32 5 32 -4 4 -6 -16 -7 -35 -5 -42 3 -7 0 -24 -7
-37 -6 -13 -8 -20 -4 -16 4 4 21 -7 39 -23 28 -27 29 -31 14 -40 -28 -16 -22
-32 10 -25 l27 6 -25 -15 c-23 -15 -23 -15 -2 -10 17 5 22 2 23 -12 1 -10 5
-4 9 12 l8 30 1 -27 c1 -30 21 -37 40 -14 7 8 33 16 59 18 26 3 56 8 67 11 11
4 2 -2 -20 -13 -22 -11 -34 -20 -27 -20 23 0 71 30 84 53 16 30 10 97 -10 121
-10 11 -11 16 -4 12 21 -12 14 39 -9 68 -17 22 -20 36 -16 74 4 33 3 39 -3 22
-13 -40 -11 -77 5 -90 8 -7 15 -17 15 -23 0 -5 -9 2 -21 17 -17 22 -20 35 -14
71 7 48 -2 56 -29 29z"/>
<path d="M5979 5374 c-8 -9 -13 -29 -12 -43 2 -23 2 -24 -6 -6 -5 11 -10 14
-10 8 -1 -19 -31 -16 -55 5 -20 16 -20 16 -7 -1 13 -16 12 -16 -15 -2 -55 28
-94 14 -94 -35 0 -53 44 -86 90 -67 14 5 42 11 64 13 39 2 60 19 49 38 -4 5
-9 1 -13 -9 -6 -17 -7 -17 -13 4 -5 19 -11 23 -31 19 -14 -3 -23 -1 -20 3 6
11 38 12 48 2 4 -5 11 -8 14 -8 4 -1 17 -6 29 -13 18 -10 21 -17 13 -36 -7
-19 -5 -28 10 -41 20 -18 54 -17 56 3 3 25 5 27 15 12 8 -12 9 -9 4 10 -4 14
-16 34 -28 44 -17 15 -18 18 -4 13 13 -5 21 0 29 18 10 22 8 29 -17 55 -32 34
-75 40 -96 14z"/>
<path d="M5782 5347 c-12 -13 -22 -35 -22 -50 0 -27 53 -97 74 -97 6 0 25 -12
41 -26 l30 -26 -31 21 c-53 35 -110 32 -150 -6 -16 -16 -26 -24 -22 -18 5 5 8
14 8 20 0 5 -6 1 -12 -10 -14 -24 -17 -70 -6 -109 6 -22 5 -27 -4 -18 -6 6
-11 30 -11 53 0 31 -2 37 -9 25 -15 -27 1 -75 39 -117 42 -46 96 -65 140 -49
35 14 93 69 93 89 0 14 -1 14 -10 1 -7 -11 -8 -6 -4 17 4 20 0 44 -10 65 l-16
33 20 -24 c27 -31 26 -17 -1 21 -12 17 -46 45 -75 64 -29 19 -58 43 -64 53
-28 54 6 108 60 97 19 -3 29 -2 25 4 -11 18 -61 10 -83 -13z"/>
<path d="M1584 5272 c-30 -25 -45 -57 -37 -79 8 -24 44 -63 57 -63 6 0 -1 10
-16 23 -40 33 -43 59 -12 96 30 36 62 40 95 10 l24 -20 -27 17 c-34 20 -72 12
-93 -20 -29 -44 11 -94 70 -87 17 2 18 0 5 -9 -10 -8 -11 -10 -2 -8 8 2 13 8
13 13 0 6 6 17 14 25 7 8 15 26 18 40 l4 25 2 -25 c0 -15 -4 -31 -11 -38 -8
-8 -8 -12 -1 -12 13 0 23 23 23 55 0 28 -52 75 -83 75 -12 -1 -31 -9 -43 -18z"/>
<path d="M9337 5224 c-24 -22 -28 -32 -23 -57 6 -29 30 -54 69 -69 11 -5 16
-4 12 2 -3 6 -12 10 -20 10 -8 0 -17 4 -20 10 -4 6 4 6 21 -1 23 -8 33 -6 58
11 l31 21 -27 -25 c-18 -16 -23 -26 -15 -29 11 -5 -17 -11 -35 -8 -5 0 -8 -8
-8 -19 0 -11 3 -19 8 -19 4 1 16 1 27 -1 l20 -1 -20 -10 -20 -9 20 3 c16 2 20
10 20 38 0 21 9 46 23 63 12 16 22 32 22 37 0 19 -23 56 -42 68 -14 9 -18 9
-13 1 7 -11 -8 -9 -50 6 -5 3 -23 -8 -38 -22z"/>
<path d="M9969 5203 c-1 -4 -1 -11 -1 -15 1 -3 -6 -12 -15 -20 -14 -11 -16
-11 -8 2 8 13 7 13 -8 1 -27 -21 -20 -57 18 -95 28 -29 31 -35 17 -39 -15 -4
-14 -5 2 -6 10 0 24 -8 31 -18 15 -21 45 -10 45 16 0 27 -17 36 -37 19 -12 -9
-15 -9 -9 0 4 7 2 12 -6 12 -8 0 -23 7 -34 16 -18 15 -18 15 3 5 28 -14 70
-14 78 -1 4 6 16 8 26 5 11 -4 25 -2 32 3 7 6 16 11 20 11 13 1 40 31 27 31
-7 0 -29 13 -49 29 -20 15 -49 31 -66 35 -16 4 -38 9 -47 12 -10 3 -19 2 -19
-3z"/>
<path d="M8526 5175 c-15 -8 -32 -13 -37 -10 -4 3 -13 -3 -18 -14 -13 -23 -15
-42 -3 -24 5 7 8 -4 7 -26 0 -22 -3 -37 -6 -35 -4 2 -9 -5 -12 -15 -3 -14 0
-17 15 -13 10 2 27 -3 36 -12 25 -22 75 -30 101 -16 34 17 61 20 61 6 0 -19
47 -59 62 -53 9 4 8 6 -3 6 -20 1 -46 29 -51 56 -2 11 -9 19 -14 18 -5 -1 -7
16 -5 40 5 36 6 38 9 12 2 -27 11 -53 31 -94 7 -15 62 -35 59 -23 -1 4 2 17 6
30 11 32 -10 54 -48 50 -29 -3 -31 0 -37 35 -4 25 -18 50 -39 70 -18 18 -29
26 -25 18 7 -13 -3 -12 -50 5 -5 2 -23 -3 -39 -11z"/>
<path d="M10170 5113 c-8 -3 -23 -12 -32 -21 -10 -8 -18 -12 -18 -7 0 4 -7 2
-15 -5 -8 -7 -22 -9 -31 -6 -23 9 -37 -3 -23 -20 6 -8 9 -23 6 -34 -3 -11 -1
-20 4 -20 13 0 11 44 -3 58 -14 14 0 16 21 3 8 -5 12 -18 8 -31 -4 -17 -2 -20
11 -15 14 5 15 4 4 -7 -7 -7 -33 -13 -57 -13 -36 0 -42 -2 -30 -11 15 -11 21
-34 9 -34 -3 0 -17 9 -31 20 -14 11 -21 20 -14 20 6 0 11 7 11 15 0 8 -9 15
-20 15 -20 0 -26 -16 -12 -36 13 -19 79 -54 87 -46 5 4 5 1 1 -6 -5 -9 -18 -6
-50 13 -24 14 -56 25 -72 25 -70 -1 -143 -47 -144 -92 0 -9 -4 -18 -9 -20 -4
-1 -5 -12 -1 -23 6 -16 9 -11 14 22 4 23 15 48 24 55 15 11 15 11 5 -2 -21
-28 -25 -83 -8 -122 8 -21 13 -38 10 -38 -3 0 -11 14 -17 31 -6 16 -12 28 -15
26 -2 -3 3 -21 11 -42 10 -23 20 -34 27 -29 7 4 9 3 5 -4 -3 -6 -2 -13 4 -17
5 -3 10 -12 10 -18 0 -7 -4 -6 -11 3 -8 12 -10 11 -7 -5 2 -11 8 -20 15 -20
18 0 27 -14 28 -43 0 -21 5 -27 22 -26 12 0 19 -4 16 -9 -3 -5 -14 -6 -26 -3
-15 4 -17 2 -8 -7 9 -9 16 -9 29 1 9 7 31 19 47 27 l30 16 -35 -6 c-32 -5 -33
-4 -10 6 14 5 32 8 42 6 21 -6 80 53 60 60 -10 4 -6 9 10 17 19 11 30 9 70
-11 80 -39 144 -29 213 35 l40 37 -35 -39 c-64 -71 -136 -84 -221 -40 -28 14
-48 21 -45 15 12 -18 97 -51 133 -51 50 0 95 22 141 70 47 49 72 125 52 157
-10 16 -11 15 -6 -7 3 -14 1 -39 -3 -55 -7 -24 -8 -19 -7 27 2 34 -2 59 -8 61
-6 2 7 4 29 3 32 -1 40 3 42 19 l3 20 -9 -20 c-10 -21 -10 -21 -15 28 0 6 -8
12 -16 12 -8 0 -14 -5 -13 -12 1 -6 -4 -17 -13 -24 -12 -9 -17 -10 -27 0 -9
10 -8 11 8 6 12 -4 1 11 -27 40 -27 25 -48 51 -48 58 0 7 -8 25 -18 41 -17 29
-57 41 -92 29z"/>
<path d="M6894 5057 c-47 -48 -62 -87 -45 -120 9 -19 10 -17 5 13 -3 24 0 41
11 55 16 20 16 20 6 -1 -19 -39 -6 -106 26 -141 17 -18 36 -33 44 -33 8 1 2 8
-13 16 -38 20 -36 29 2 9 16 -8 37 -15 47 -16 15 0 14 -2 -3 -9 -12 -5 -25
-14 -30 -21 -5 -9 -2 -10 10 -6 10 4 15 3 11 -3 -3 -6 -14 -10 -24 -10 -21 0
-30 -22 -40 -97 -6 -45 -5 -51 10 -48 10 2 20 -3 23 -10 3 -10 0 -12 -11 -8
-12 5 -14 3 -8 -7 5 -8 -6 -4 -23 9 -31 22 -45 39 -19 25 6 -4 9 -4 5 1 -12
13 -80 12 -125 -3 -24 -8 -54 -27 -68 -44 -14 -16 -25 -26 -25 -21 0 5 5 14
12 21 7 7 8 12 2 12 -6 0 -16 -11 -22 -25 -14 -30 -15 -38 -4 -32 4 3 8 -15 9
-40 1 -25 10 -57 19 -72 16 -25 16 -25 -1 -10 -9 9 -21 32 -25 50 -7 28 -8 30
-9 9 -1 -32 34 -90 54 -90 14 0 91 -41 137 -73 14 -9 20 -8 33 8 15 20 15 20
9 0 -5 -16 -4 -17 5 -5 15 21 14 43 -1 34 -7 -4 -2 5 11 19 30 33 42 36 15 5
-17 -21 -16 -21 9 1 26 23 38 49 17 36 -19 -12 -9 10 15 34 17 16 25 33 23 55
l-1 31 -4 -32 c-2 -17 -12 -37 -21 -44 -14 -11 -15 -11 -4 1 17 19 15 71 -4
100 l-16 25 20 -22 c24 -28 38 -17 15 11 -10 12 -3 8 15 -8 32 -30 42 -43 21
-30 -7 4 -9 -1 -7 -12 2 -11 10 -18 17 -16 7 1 10 -2 7 -7 -9 -14 40 -22 70
-11 15 6 31 7 35 3 9 -9 -2 -11 -66 -15 -21 -1 -30 -5 -22 -10 6 -4 26 -5 44
-2 23 4 39 0 62 -17 24 -18 34 -20 43 -11 7 7 20 12 29 12 10 0 27 12 38 26
12 15 21 22 21 17 0 -12 -39 -48 -60 -56 -13 -5 -13 -6 1 -6 9 -1 34 19 56 43
34 38 38 46 24 52 -9 4 -20 6 -24 5 -5 -1 -6 3 -2 9 3 5 1 10 -6 10 -7 0 -9 3
-6 7 4 3 16 -2 27 -12 11 -10 34 -18 52 -17 18 0 27 -2 21 -6 -16 -10 -3 -25
31 -37 35 -12 40 -29 9 -33 -18 -3 -21 -9 -19 -42 1 -22 6 -43 11 -47 4 -4 5
0 2 10 -4 11 -3 16 3 12 12 -7 14 -35 3 -35 -12 0 -46 -64 -36 -67 4 -2 7 -23
5 -48 -4 -42 -1 -49 33 -80 42 -40 93 -47 147 -19 19 10 28 11 23 3 -5 -8 -4
-10 4 -5 6 4 18 21 27 38 14 28 14 45 -2 95 -5 15 -4 16 6 3 9 -13 11 -12 8 5
-2 11 -8 20 -15 20 -6 0 -15 4 -20 9 -5 5 -3 6 5 2 9 -5 12 3 12 32 0 28 -6
44 -22 58 -22 19 -22 19 -8 0 14 -18 14 -19 -7 -8 -12 7 -32 13 -45 13 -19 1
-18 3 7 9 17 4 24 8 16 9 -14 1 -52 44 -63 73 -5 11 -3 17 5 15 7 -1 13 11 15
27 3 23 -7 39 -62 93 -44 45 -70 63 -83 60 -15 -4 -15 -5 3 -6 12 0 28 -9 35
-18 11 -15 11 -16 -1 -5 -20 18 -80 15 -103 -5 -14 -12 -18 -13 -12 -3 5 8 8
33 8 55 l-1 40 6 -36 c6 -31 10 -35 27 -28 18 7 18 8 2 8 -15 1 -18 8 -16 34
3 36 -34 97 -46 77 -5 -8 -11 -8 -21 1 -7 6 -39 22 -71 35 -32 13 -50 24 -40
24 10 0 41 -11 70 -26 40 -19 46 -21 27 -5 -13 10 -41 25 -63 32 -45 15 -47
18 -36 44 8 18 9 17 5 -4 -3 -16 -2 -21 5 -14 7 7 7 23 0 49 -13 46 -13 68 -1
39 8 -20 9 -20 9 1 1 26 -41 66 -76 72 -16 3 -49 6 -75 6 -52 1 -54 5 -6 16
33 8 33 8 4 9 -21 1 -40 -10 -72 -42z"/>
<path d="M8093 5058 c7 -4 28 -5 48 -2 45 8 100 -9 125 -38 17 -19 15 -19 -14
3 -28 20 -47 24 -109 25 l-75 2 6 -27 c5 -19 4 -22 -4 -11 -8 12 -10 11 -10
-8 0 -16 4 -21 13 -16 7 4 9 3 4 -2 -5 -5 -14 -9 -19 -9 -6 0 -13 -6 -16 -14
-3 -8 -1 -11 4 -8 5 3 9 -10 9 -28 0 -36 -14 -38 -16 -2 -1 16 -3 17 -6 5 -5
-21 15 -61 27 -53 5 3 11 1 14 -4 4 -5 1 -13 -5 -17 -8 -5 -9 -3 -4 6 5 8 4
11 -2 7 -6 -4 -10 -17 -9 -29 1 -18 7 -22 25 -20 13 1 30 -3 38 -10 8 -7 31
-11 51 -10 53 3 65 -8 41 -38 -16 -20 -18 -21 -10 -4 13 26 6 34 -28 33 -25
-1 -24 -2 4 -8 l30 -7 -29 -27 c-29 -27 -80 -34 -93 -13 -3 5 -1 6 5 2 7 -4
12 -2 12 4 0 7 -16 10 -42 8 -34 -2 -43 -7 -45 -23 l-3 -20 9 20 c9 19 10 19
10 -2 1 -21 12 -28 36 -23 37 8 75 9 79 2 2 -4 -12 -7 -31 -6 -26 0 -45 -7
-67 -26 -17 -15 -37 -25 -43 -23 -7 3 -13 -2 -13 -11 0 -9 6 -15 13 -14 7 2
11 -5 9 -15 -2 -9 4 -20 13 -23 26 -10 16 -24 -17 -24 -18 0 -42 -7 -52 -15
-11 -8 -34 -15 -50 -15 -27 0 -35 -7 -58 -49 -17 -29 -28 -64 -28 -85 0 -38
25 -100 38 -92 4 2 23 -9 41 -25 l35 -29 -32 12 c-24 9 -39 10 -62 1 -38 -14
-39 -8 -1 11 16 9 32 12 36 8 5 -4 5 -2 1 5 -13 23 -81 -19 -72 -44 3 -7 0
-12 -6 -10 -7 1 -14 -7 -16 -18 -2 -11 -11 -29 -21 -40 -15 -18 -15 -19 1 -6
10 7 23 11 30 8 8 -4 7 -6 -4 -6 -23 -1 -52 -46 -44 -68 6 -14 5 -15 -5 -6 -9
9 -9 19 -2 35 8 18 5 27 -15 50 -14 15 -32 28 -41 27 -11 0 -9 -3 5 -9 12 -5
25 -14 29 -20 5 -7 0 -7 -14 2 -18 11 -23 10 -36 -7 -15 -20 -15 -20 -9 0 5
19 5 19 -6 2 -12 -19 -7 -32 13 -32 7 0 12 -6 12 -14 0 -18 21 -26 30 -12 4 7
-1 8 -12 5 -15 -6 -15 -4 2 9 22 17 37 13 29 -7 -10 -26 62 -136 88 -136 5 0
-1 10 -14 23 -13 12 -16 16 -6 8 10 -8 33 -15 51 -15 26 -1 33 -5 34 -21 1
-11 -1 -14 -4 -7 -3 6 -14 12 -26 11 -15 0 -17 -2 -7 -6 8 -3 19 -12 23 -20 5
-7 11 -11 15 -9 4 2 18 -12 30 -32 l23 -37 -25 30 c-14 17 -26 25 -26 19 0
-18 55 -64 76 -63 15 1 13 3 -6 8 -14 4 -20 10 -14 13 6 4 21 1 35 -5 30 -16
72 -19 63 -6 -3 5 -15 7 -27 3 -18 -5 -20 -4 -10 7 17 18 65 -4 61 -28 -5 -27
-21 -43 -30 -29 -5 7 -8 5 -8 -5 0 -17 27 -29 68 -29 17 0 22 6 22 26 0 20 -4
24 -19 19 -11 -3 -23 0 -27 6 -5 8 -2 10 8 7 8 -4 21 -2 29 4 11 8 11 9 -3 5
-9 -3 -21 0 -27 7 -9 10 -7 15 9 19 24 6 26 29 5 47 -8 7 -16 31 -16 54 l-2
41 -7 -40 -7 -40 -2 48 c-1 36 2 46 12 41 6 -4 9 -3 4 1 -11 13 -79 35 -108
35 -14 0 -30 -5 -37 -10 -6 -6 -10 -7 -7 -4 2 4 0 16 -6 27 -8 14 -8 18 0 13
6 -4 11 0 11 8 0 10 -6 13 -17 9 -10 -3 -6 4 10 16 15 12 27 29 27 37 0 8 10
14 24 14 14 0 27 4 30 9 3 4 -5 6 -18 4 -13 -3 -26 -1 -29 4 -3 4 5 8 16 9 12
0 29 2 37 5 8 2 15 -3 15 -11 2 -28 65 7 65 36 0 7 6 14 13 17 6 2 -1 2 -18 0
-29 -3 -29 -3 -5 7 16 8 31 8 45 1 11 -5 37 -11 58 -13 l38 -4 -23 19 c-13 10
-17 16 -11 12 8 -4 11 -1 8 7 -7 18 -54 21 -74 6 -14 -12 -14 -11 -2 5 7 9 19
17 26 17 12 0 55 18 108 45 15 8 25 10 22 5 -3 -6 4 -10 17 -9 13 0 17 3 11 6
-9 3 -10 10 -4 22 10 18 13 106 3 97 -3 -3 -5 -25 -4 -48 1 -23 -1 -39 -4 -36
-3 3 -5 24 -6 47 0 41 -11 60 -23 42 -4 -7 -15 -7 -32 0 -14 5 -35 7 -47 4
-19 -5 -19 -5 -3 5 13 8 27 9 48 1 16 -6 27 -6 24 -1 -5 9 -72 26 -86 22 -4
-1 -4 8 -1 20 4 16 2 19 -9 13 -8 -5 -3 4 10 18 30 33 42 36 15 5 -17 -21 -16
-21 9 1 31 28 36 61 10 62 -14 0 -15 2 -3 6 8 4 21 13 28 22 10 14 11 13 5 -4
-6 -18 -5 -18 10 -6 9 7 26 11 37 8 11 -3 18 -2 15 2 -5 9 29 42 60 59 12 7
14 12 6 12 -7 0 -29 -13 -48 -30 -36 -32 -49 -36 -73 -20 -11 8 -8 9 11 5 21
-5 35 0 61 24 20 17 46 32 59 34 12 2 25 10 27 17 3 8 0 10 -8 5 -10 -6 -12
-4 -7 8 5 14 -3 15 -66 12 l-72 -3 64 10 c39 6 59 13 51 18 -7 5 -23 3 -36 -2
-17 -8 -26 -7 -36 3 -12 12 -11 17 6 33 19 19 19 19 12 0 -5 -14 -4 -16 4 -8
13 13 17 61 6 94 -6 20 -5 22 4 10 9 -13 11 -12 8 5 -2 11 -8 20 -15 20 -6 0
-15 4 -20 9 -5 5 -3 6 5 2 6 -4 12 -3 12 2 0 11 -49 57 -77 71 -24 12 -149 11
-130 -1z"/>
<path d="M7356 5027 c-71 -55 -116 -105 -115 -128 0 -22 1 -23 9 -4 6 14 7 8
4 -21 -5 -34 -2 -45 21 -72 15 -18 23 -32 19 -32 -4 0 1 -9 11 -20 10 -11 22
-20 28 -20 5 0 -1 9 -14 20 l-24 20 30 -15 c38 -19 82 -19 119 0 16 9 31 14
33 12 2 -3 -11 -12 -29 -20 -18 -9 -27 -17 -20 -17 25 0 72 41 92 80 26 50 25
92 -1 121 -11 13 -17 17 -13 9 7 -13 5 -13 -9 -1 -18 15 -23 26 -7 16 6 -3 10
-1 10 4 0 6 -9 16 -20 23 -11 7 -20 18 -20 24 0 6 -9 19 -20 29 -16 14 -23 16
-32 7 -15 -15 -32 -16 -23 -2 9 14 4 12 -29 -13z"/>
<path d="M8446 5013 c-13 -13 -17 -14 -11 -3 7 12 6 13 -6 2 -11 -11 -12 -14
-1 -21 11 -7 10 -10 -3 -15 -24 -9 -27 -8 -19 7 4 6 -5 1 -19 -12 -16 -15 -27
-35 -27 -51 0 -31 37 -70 66 -70 13 1 9 5 -13 15 -18 8 -33 17 -33 20 0 3 9 1
19 -5 11 -5 33 -10 50 -10 25 0 31 5 41 38 7 20 22 47 33 59 l20 22 -24 20
c-30 25 -49 26 -73 4z"/>
<path d="M6160 4934 c-8 -3 -29 -12 -47 -20 -17 -8 -33 -14 -36 -14 -14 0 -67
-57 -67 -73 0 -11 5 -15 11 -11 8 5 8 1 0 -14 -6 -11 -16 -22 -21 -24 -16 -5
-22 -61 -10 -89 9 -21 9 -19 4 11 -8 44 1 37 14 -13 7 -26 7 -35 0 -31 -6 4
-9 1 -6 -7 3 -8 10 -14 15 -14 6 0 15 -4 20 -9 5 -5 3 -6 -4 -2 -20 11 -15 -9
8 -35 11 -13 18 -18 14 -11 -9 17 0 15 16 -5 10 -11 10 -14 2 -9 -20 11 -16
-39 4 -55 11 -10 14 -10 9 -1 -11 18 -1 15 15 -5 12 -14 12 -16 0 -9 -9 6 -12
4 -9 -5 3 -8 10 -14 16 -14 5 0 14 -4 19 -9 5 -5 3 -6 -4 -2 -8 4 -13 1 -13
-9 0 -10 5 -13 12 -9 7 5 8 3 4 -5 -8 -13 20 -51 37 -51 6 0 2 7 -9 15 -18 14
-18 14 3 8 30 -7 76 5 68 18 -4 5 -3 9 2 8 19 -3 33 2 33 12 0 5 -5 7 -12 3
-6 -4 -8 -3 -5 3 4 6 31 22 60 36 30 14 65 39 79 56 29 34 64 118 54 128 -3 3
-6 -1 -6 -10 0 -9 -4 -18 -9 -22 -6 -3 -6 7 0 27 14 52 -14 144 -59 193 l-37
40 45 -40 45 -40 -39 42 c-22 23 -43 40 -48 37 -5 -3 -19 1 -31 9 -25 16 -113
29 -137 21z"/>
<path d="M6575 4905 c-26 -18 -48 -25 -76 -23 -64 3 -102 -46 -76 -99 8 -15
12 -33 10 -40 -6 -18 38 -43 76 -43 48 0 102 38 98 69 -1 16 4 25 16 26 9 2
15 -1 11 -6 -3 -5 -10 -6 -16 -3 -8 5 -9 1 -5 -10 4 -10 7 -22 7 -28 0 -6 15
-8 38 -5 l37 6 -40 -14 -40 -13 64 2 c47 1 66 5 68 16 4 12 3 12 -5 2 -7 -11
-11 -10 -17 5 -4 10 -7 28 -6 40 3 29 -29 46 -64 33 -35 -13 -57 -12 -25 2 40
18 54 18 78 2 17 -11 23 -22 19 -40 -2 -13 0 -21 4 -18 18 11 8 43 -19 66 -15
13 -34 36 -42 51 -12 25 -12 30 0 37 8 6 11 10 5 10 -5 0 -17 -4 -25 -10 -12
-7 -12 -12 4 -29 10 -11 16 -26 13 -33 -4 -9 -6 -8 -6 4 -1 9 -12 25 -26 36
-13 11 -21 22 -18 26 14 14 -7 4 -42 -19z"/>
<path d="M4502 4897 c-22 -23 -31 -53 -12 -42 6 3 10 4 10 1 0 -3 -10 -10 -21
-17 -15 -8 -19 -8 -15 0 4 6 2 11 -4 11 -8 0 -10 -10 -7 -27 l6 -28 -12 28
c-12 29 -26 34 -45 15 -9 -9 -16 -7 -31 6 -25 23 -76 14 -67 -10 3 -9 6 -20 6
-25 0 -6 6 -7 13 -3 7 5 7 1 -2 -10 -25 -30 -71 -50 -85 -35 -8 9 -8 10 1 5
12 -6 73 18 73 30 0 2 -13 -2 -30 -11 -27 -14 -30 -14 -40 5 -6 11 -16 18 -22
14 -7 -4 -8 2 -3 17 4 13 4 21 0 17 -4 -4 -30 2 -59 14 -50 20 -105 21 -150 2
-15 -6 -17 -4 -11 7 5 8 -5 3 -22 -11 -33 -27 -73 -89 -72 -111 0 -8 4 -5 9 6
l9 20 -1 -20 c0 -11 -4 -31 -8 -45 l-8 -25 -2 25 c-2 18 -4 20 -7 8 -2 -10
-10 -18 -17 -18 -7 0 -25 -13 -41 -30 -16 -16 -35 -30 -43 -30 -10 0 -12 -7
-8 -25 6 -23 4 -24 -24 -19 -30 6 -44 -11 -17 -21 15 -6 20 -66 8 -97 -9 -21
-10 -21 -11 -3 -1 18 -2 17 -11 -4 -5 -14 -7 -39 -3 -55 6 -28 8 -29 15 -11 7
19 8 19 8 -2 1 -15 -5 -23 -16 -23 -10 0 -33 -19 -52 -43 l-34 -42 39 35 39
35 -34 -37 c-19 -21 -41 -38 -49 -38 -7 0 -10 -5 -7 -10 4 -6 16 -8 27 -4 15
5 19 3 13 -7 -5 -8 6 -1 23 15 l32 30 28 -25 c15 -13 43 -35 62 -47 l35 -23
-27 23 c-15 13 -40 33 -55 46 -17 13 -9 10 17 -7 57 -37 85 -67 71 -76 -6 -3
-11 -3 -11 0 0 4 -12 -3 -26 -14 -15 -12 -32 -21 -39 -21 -13 0 -45 -32 -45
-46 0 -4 7 2 16 14 8 12 21 22 27 22 7 0 25 7 41 15 24 13 27 13 17 1 -7 -8
-26 -18 -42 -21 -35 -8 -48 -30 -50 -82 l-2 -38 -7 40 -7 40 -2 -40 c-1 -38
-4 -41 -47 -59 -25 -10 -43 -20 -40 -23 2 -2 17 2 33 10 15 8 39 17 53 21 14
3 1 -5 -29 -19 -29 -14 -60 -25 -67 -25 -8 0 -14 -8 -14 -17 0 -15 2 -16 10
-3 7 10 10 11 11 3 1 -7 2 -18 3 -24 1 -16 44 -31 51 -19 4 6 -6 10 -22 11
-21 1 -17 4 17 11 25 5 52 12 60 15 8 3 20 5 27 4 19 -3 26 19 12 37 -7 9 -9
14 -4 9 5 -4 14 5 20 20 7 17 8 30 2 34 -5 4 5 11 21 17 27 9 31 8 36 -13 7
-27 53 -85 67 -85 6 0 -3 12 -18 26 l-28 26 29 -21 c30 -22 53 -25 105 -15 31
7 62 45 60 76 0 7 -4 4 -9 -7 -6 -15 -9 -7 -9 30 0 38 3 45 10 30 8 -18 8 -17
6 5 -1 14 -7 24 -14 23 -6 -1 -18 6 -28 17 -17 19 -16 20 21 37 22 9 46 22 54
28 9 5 5 0 -8 -12 -13 -13 -19 -23 -13 -23 17 0 78 80 84 109 6 29 -3 82 -14
78 -13 -5 -37 25 -34 41 2 9 4 19 4 21 1 3 8 -4 17 -15 14 -18 15 -18 9 6 -5
19 -4 22 4 10 6 -8 8 -23 5 -34 -4 -11 -2 -16 4 -12 5 3 16 -2 23 -11 10 -12
10 -14 2 -9 -7 4 -13 3 -13 -3 0 -19 77 -23 112 -5 32 17 33 17 18 -2 -14 -18
-14 -18 8 0 20 17 28 18 62 9 27 -7 40 -7 43 0 2 6 6 3 10 -7 4 -10 3 -15 -3
-11 -20 12 -9 -16 18 -45 38 -43 99 -49 158 -16 24 13 45 21 48 18 3 -3 6 -22
6 -42 0 -23 7 -43 17 -51 15 -12 16 -12 8 1 -4 8 7 1 26 -16 19 -17 46 -34 62
-38 15 -3 38 -9 53 -12 18 -5 32 0 50 16 25 25 33 47 12 34 -9 -5 -9 -2 1 9
15 18 26 23 16 7 -7 -12 2 -12 30 -1 11 5 20 14 20 22 0 8 7 14 15 14 8 0 16
9 17 20 l3 20 -9 -20 c-8 -17 -10 -14 -10 16 -2 63 -38 79 -189 82 -37 1 -40
3 -22 11 14 7 36 6 64 -2 23 -6 53 -8 65 -5 15 4 33 -2 54 -17 l32 -23 -23 24
c-16 17 -35 24 -65 26 -84 3 -130 16 -155 42 -14 14 -19 18 -12 8 13 -17 11
-17 -16 -6 -40 17 -52 29 -23 22 23 -5 23 -5 4 10 -11 8 -23 13 -27 11 -4 -2
-10 1 -14 7 -4 8 -3 9 4 5 27 -17 9 15 -21 38 -45 35 -115 36 -143 4 -19 -23
-19 -23 2 -5 30 25 102 22 134 -4 l25 -21 -27 16 c-43 25 -110 21 -138 -9 -23
-24 -40 -25 -40 -2 0 8 3 8 9 -2 5 -7 11 -9 14 -4 9 14 -63 80 -95 88 -16 4
-36 1 -55 -10 -15 -9 -19 -13 -8 -9 43 17 85 8 113 -21 25 -27 25 -28 2 -8
-14 11 -35 24 -47 28 -25 7 -92 -13 -108 -32 -5 -6 -23 -14 -40 -17 -20 -3
-16 -4 12 -2 23 1 39 -2 37 -6 -3 -5 -19 -8 -35 -8 -17 0 -40 -5 -52 -12 -21
-11 -21 -10 -7 7 14 18 13 18 -12 0 -15 -11 -28 -27 -28 -35 -1 -10 -4 -9 -10
5 -12 28 -12 43 1 25 8 -12 9 -9 5 11 -5 22 -1 27 30 39 20 8 31 16 25 18 -7
2 -17 0 -24 -6 -7 -5 -25 -12 -42 -16 -22 -5 -26 -4 -15 4 8 5 21 10 29 10 8
0 28 11 45 23 17 13 43 23 57 23 22 -1 26 3 25 24 -1 16 4 25 14 25 16 0 18
27 6 56 -6 13 1 20 29 29 20 7 34 14 32 17 -3 2 -22 -3 -42 -12 -21 -8 -40
-14 -42 -12 -1 2 24 15 56 29 71 31 96 27 164 -22 42 -30 56 -34 108 -35 55
-1 63 2 85 28 18 21 22 35 17 59 -4 22 -3 29 5 24 9 -5 9 -1 3 16 -5 13 -14
22 -20 21 -6 -2 -8 3 -5 11 5 14 -9 19 -101 36 -41 8 -52 7 -69 -8 -20 -16
-20 -16 -6 2 8 10 23 22 35 26 14 6 15 9 4 9 -8 1 -25 -9 -37 -22z"/>
<path d="M5496 4876 c-26 -24 -36 -42 -36 -63 0 -31 33 -83 53 -83 6 0 2 7 -9
16 -19 15 -19 16 1 9 42 -15 64 -17 86 -5 23 11 23 10 5 -4 -11 -9 -15 -16
-10 -16 16 0 51 42 58 70 l7 25 -16 -25 -15 -25 6 27 c5 22 0 34 -24 58 -36
35 -53 37 -95 9 l-32 -21 30 26 c40 34 60 33 101 -8 19 -19 34 -30 34 -26 0
15 -71 70 -90 70 -10 0 -35 -15 -54 -34z"/>
<path d="M9661 4884 c-19 -16 -31 -35 -31 -50 0 -15 -6 -24 -16 -24 -8 0 -13
4 -9 9 8 15 -9 21 -25 9 -12 -8 -12 -9 3 -4 27 8 20 -3 -8 -14 -14 -5 -25 -15
-24 -22 0 -9 2 -10 5 -1 4 8 11 7 24 -5 15 -12 17 -18 7 -25 -9 -6 -8 -7 3 -4
8 2 14 10 13 16 -2 6 4 11 13 11 8 0 13 4 10 8 -3 5 17 5 45 -1 43 -8 52 -7
72 9 l22 19 -19 -22 c-11 -13 -31 -24 -45 -24 -25 -2 -25 -2 -3 -6 33 -6 75
33 66 61 -4 12 -7 29 -8 38 -1 18 -33 47 -53 48 -6 0 -25 -12 -42 -26z"/>
<path d="M8887 4842 c-25 -26 -37 -49 -19 -39 4 3 7 -5 7 -18 0 -13 -3 -21 -7
-18 -5 2 -8 0 -8 -6 0 -5 10 -11 23 -13 12 -2 22 -10 22 -18 0 -27 45 -24 76
6 39 37 38 74 -2 108 -39 33 -59 33 -92 -2z"/>
<path d="M5719 4761 c-20 -20 -29 -39 -28 -58 2 -27 2 -27 6 -3 3 14 8 29 13
33 4 5 4 -10 0 -32 -5 -26 -4 -39 3 -38 6 1 11 -4 12 -11 0 -19 26 -32 60 -31
28 1 27 2 -8 9 -53 10 -53 15 3 15 29 0 46 -4 43 -10 -3 -5 3 -1 15 10 11 11
23 31 27 45 4 17 3 21 -3 12 -7 -11 -10 -9 -15 7 -3 12 -1 19 4 15 20 -12 7
14 -19 39 -37 36 -75 35 -113 -2z"/>
<path d="M10436 4671 c-9 -10 -16 -24 -16 -33 0 -9 -9 -14 -22 -14 -17 1 -22
-6 -25 -32 -4 -30 -2 -33 19 -30 31 4 36 36 6 48 -21 9 -21 9 7 6 34 -5 87
-24 68 -25 -7 -1 -13 -12 -13 -26 0 -14 -6 -25 -13 -25 -8 0 -24 -11 -37 -24
-22 -24 -22 -27 -7 -63 8 -21 21 -38 28 -39 40 -3 44 -5 24 -15 -19 -8 -19 -9
-1 -6 11 1 20 9 21 18 5 30 16 59 24 59 4 0 18 -12 32 -27 18 -21 19 -24 4
-13 -14 10 -17 10 -8 1 13 -15 86 -25 120 -16 13 3 40 20 60 37 34 29 36 30
13 4 -38 -42 -77 -59 -124 -53 -26 4 -35 2 -25 -4 19 -12 66 -11 92 2 34 18
97 81 97 99 0 10 -3 11 -8 3 -4 -6 -7 13 -7 42 0 46 -4 58 -29 84 -41 43 -111
63 -167 47 -15 -4 -43 -3 -62 2 -29 8 -38 7 -51 -7z"/>
<path d="M9727 4642 c-34 -35 -34 -72 -2 -102 35 -33 87 -34 116 -4 17 18 19
26 10 42 -13 24 -14 35 -3 29 10 -7 7 51 -3 61 -5 4 -5 2 -1 -5 3 -6 2 -14 -4
-18 -6 -4 -7 -12 -3 -18 3 -7 -3 -4 -14 6 -42 36 -103 10 -103 -46 0 -16 10
-33 26 -46 15 -12 22 -21 17 -21 -18 0 -53 47 -53 71 0 51 74 89 110 57 12
-11 12 -10 1 5 -20 26 -63 21 -94 -11z"/>
<path d="M8681 4579 c-33 -20 -51 -47 -51 -77 0 -22 36 -72 53 -72 6 0 2 7 -9
15 -17 13 -16 14 14 4 27 -9 37 -8 60 7 17 11 46 18 79 18 28 1 46 4 40 8 -7
4 -23 8 -37 8 -21 0 -29 8 -43 43 -14 34 -16 37 -13 12 l5 -30 -12 28 c-12 30
-50 37 -90 16 -18 -9 -20 -9 -10 2 7 7 32 15 55 19 38 5 40 6 16 11 -17 4 -38
-1 -57 -12z"/>
<path d="M8786 4463 c-11 -3 -26 -11 -34 -19 -7 -8 -22 -14 -33 -14 -19 0 -22
-19 -4 -32 6 -4 0 -8 -12 -8 -33 0 -39 -39 -15 -93 11 -24 25 -48 32 -52 9 -5
11 -4 6 3 -11 18 0 14 15 -5 10 -11 10 -14 2 -9 -7 4 -13 3 -13 -2 0 -13 52
-57 83 -70 15 -6 27 -18 27 -25 0 -28 50 -61 103 -68 l52 -6 -47 -2 c-37 -1
-53 4 -78 26 -18 14 -36 36 -40 47 -7 16 -9 17 -9 5 -1 -9 16 -33 37 -53 34
-34 41 -37 87 -34 30 2 50 8 50 15 0 6 14 21 30 34 l30 23 -25 -30 c-23 -28
-23 -28 9 3 32 29 34 36 34 93 0 46 -4 65 -18 78 -10 9 -15 12 -11 6 7 -14
-67 5 -81 20 -5 5 0 6 10 3 46 -17 67 -19 67 -7 0 7 -6 10 -12 7 -7 -2 -23 -1
-35 4 -18 7 -23 15 -21 41 l1 33 4 -33 c2 -18 8 -30 13 -27 5 3 25 -1 44 -9
20 -8 35 -12 35 -8 -4 22 3 22 22 -2 11 -14 28 -26 37 -26 12 0 9 4 -8 13 -14
7 -25 19 -25 27 0 8 11 20 25 27 24 12 23 12 -15 10 -30 -1 -40 2 -40 13 0 10
-12 16 -39 17 -24 1 -43 9 -49 18 -4 8 -12 13 -17 10 -5 -3 -12 0 -16 6 -4 8
-3 9 4 5 18 -11 14 10 -5 25 -10 8 -14 9 -10 2 5 -7 -4 -6 -23 4 -34 17 -94
25 -124 16z"/>
<path d="M6246 4425 c-20 -14 -41 -25 -46 -25 -6 0 -10 -12 -9 -27 l1 -28 7
25 c6 21 9 16 15 -29 6 -37 17 -63 36 -85 25 -28 34 -31 81 -30 45 0 56 5 81
32 30 35 37 84 17 125 -10 21 -10 21 5 3 9 -11 16 -24 16 -30 0 -5 2 -7 5 -4
10 10 -18 58 -34 58 -18 1 -61 30 -44 30 7 0 15 -4 18 -10 3 -5 12 -10 18 -10
34 1 -35 24 -79 27 -41 2 -58 -2 -88 -22z"/>
<path d="M10069 4435 c-1 -3 -2 -11 -3 -17 0 -7 -8 -13 -16 -13 -10 0 -16 -11
-17 -30 -2 -29 -2 -29 7 -5 5 15 8 19 9 8 1 -9 4 -24 8 -34 4 -12 3 -15 -5
-10 -7 4 -12 3 -12 -2 0 -14 55 -62 71 -62 7 0 -1 9 -18 20 -18 11 -33 22 -33
25 0 2 15 -4 33 -15 63 -39 129 -15 114 41 -3 10 -1 17 4 13 25 -15 4 18 -31
50 -30 27 -49 36 -75 36 -19 0 -36 -2 -36 -5z"/>
<path d="M5143 4284 c15 -8 27 -17 27 -20 0 -2 -9 0 -21 6 -16 9 -26 8 -47 -6
l-27 -17 20 24 20 24 -28 -24 c-27 -24 -38 -49 -15 -35 7 4 8 3 4 -5 -4 -6
-12 -9 -17 -5 -5 3 -16 -9 -23 -27 -21 -50 -4 -87 51 -111 44 -19 45 -19 83 0
22 11 37 15 34 10 -11 -17 -70 -37 -95 -32 l-24 5 24 -11 c47 -20 131 41 131
95 0 31 -39 97 -53 88 -5 -3 -7 -1 -3 5 7 11 -39 52 -58 52 -6 -1 1 -8 17 -16z"/>
<path d="M9525 4238 c-16 -6 -40 -9 -53 -9 -17 1 -22 -4 -20 -17 2 -9 10 -16
17 -14 7 1 10 -2 6 -8 -3 -6 -12 -7 -18 -3 -7 4 -6 0 2 -10 7 -9 16 -15 20
-13 3 2 14 -2 24 -9 18 -13 17 -14 -2 -20 -11 -3 -29 -18 -40 -31 -11 -14 -25
-23 -31 -19 -6 3 -25 -1 -43 -10 -30 -15 -31 -15 -16 1 9 9 28 17 42 17 25 2
27 17 2 17 -16 0 -75 -48 -75 -61 0 -6 5 -7 10 -4 6 4 10 -7 10 -27 0 -26 -3
-30 -11 -18 -8 12 -9 9 -5 -12 4 -18 2 -28 -5 -28 -14 0 -89 -59 -89 -70 0 -4
15 6 33 22 17 17 44 35 59 40 17 6 25 15 21 21 -3 7 4 3 16 -8 23 -20 23 -20
62 2 22 12 37 17 33 12 -3 -5 -19 -16 -35 -24 -16 -9 -27 -20 -24 -25 3 -5 -7
-2 -23 7 -28 16 -31 16 -74 -10 -49 -28 -68 -62 -37 -64 10 -1 32 -12 49 -25
30 -22 32 -22 63 -5 l32 17 -24 -20 c-13 -11 -19 -20 -13 -20 6 0 20 12 32 28
17 21 21 36 17 66 -3 23 -2 34 3 27 6 -11 9 -10 12 5 3 17 4 17 10 -4 3 -12 2
-20 -3 -16 -5 3 -9 1 -9 -5 0 -15 42 -41 65 -41 34 0 65 40 61 77 -3 23 2 37
20 54 13 12 24 30 24 38 0 12 -2 13 -8 3 -6 -8 -9 -2 -9 18 l0 31 27 -43 c15
-24 43 -56 63 -71 45 -34 57 -35 20 -1 l-28 26 29 -21 c20 -15 44 -21 79 -21
44 0 53 4 88 39 22 21 39 36 39 32 0 -4 -16 -22 -35 -41 -28 -27 -47 -36 -88
-41 l-52 -6 49 -2 c46 -1 51 2 100 51 28 28 58 51 66 50 23 -4 74 53 66 73 -3
9 -9 14 -14 12 -4 -3 -16 2 -27 10 -20 16 -20 16 0 9 19 -6 19 -5 1 8 -10 8
-16 18 -13 23 6 10 -13 28 -33 29 -8 1 -24 5 -35 9 -12 4 -15 4 -8 -2 8 -6 9
-14 3 -23 -7 -11 -10 -11 -10 -2 0 7 -6 12 -12 11 -7 -1 -31 6 -53 16 -51 22
-116 14 -162 -21 -32 -25 -35 -30 -31 -74 1 -27 0 -46 -4 -43 -5 2 -8 27 -8
54 0 42 -4 51 -22 60 -23 10 -23 10 1 5 13 -3 20 -2 15 2 -5 4 -20 17 -34 28
-21 18 -30 20 -55 12z"/>
<path d="M5499 4185 c-1 -3 -2 -11 -3 -17 0 -7 -8 -13 -16 -13 -27 0 -23 -41
7 -66 15 -14 41 -41 56 -62 21 -27 35 -37 56 -37 31 0 81 46 81 75 0 32 -50
75 -84 74 l-31 -2 30 -4 c38 -6 75 -40 74 -67 -1 -20 -1 -20 -6 -1 -14 57 -80
75 -109 30 -9 -14 -14 -32 -10 -40 3 -9 2 -13 -4 -10 -6 3 -10 12 -10 18 0 7
-14 20 -30 29 -21 12 -30 24 -29 40 l2 23 4 -23 c6 -33 39 -47 67 -29 26 18
30 45 8 70 -14 15 -50 24 -53 12z"/>
<path d="M10325 4157 c-29 -24 -47 -90 -34 -123 9 -22 12 -8 9 47 -1 21 2 39
7 42 5 3 7 -10 5 -29 -8 -66 65 -111 127 -79 24 12 31 23 32 48 l2 32 4 -30
c4 -23 -1 -34 -24 -53 -18 -15 -20 -20 -7 -13 31 15 41 32 47 80 4 29 2 40 -4
30 -7 -12 -9 -11 -9 4 0 9 -7 17 -15 17 -8 0 -30 8 -50 17 -30 14 -41 15 -68
5 -29 -10 -30 -10 -13 3 23 18 49 19 79 4 21 -10 21 -10 3 5 -28 22 -61 20
-91 -7z"/>
<path d="M4388 4133 c-33 -36 -32 -97 1 -125 13 -10 28 -18 35 -18 6 1 -1 8
-16 16 -16 8 -28 17 -28 20 0 2 10 -1 22 -7 13 -7 38 -16 56 -20 68 -15 107
66 61 125 -12 15 -30 26 -42 25 -20 -1 -21 -2 -2 -6 43 -10 34 -20 -9 -11 -36
7 -51 7 -64 -4 -15 -12 -16 -11 -4 4 8 9 23 19 35 21 21 4 21 4 1 6 -11 0 -32
-11 -46 -26z"/>
<path d="M5970 4071 c12 -8 9 -12 -16 -17 -28 -5 -32 -10 -38 -51 -3 -25 -3
-50 1 -56 4 -6 1 -7 -6 -2 -9 5 -11 18 -7 38 3 17 3 27 -1 23 -4 -4 -8 -37 -9
-74 -1 -64 9 -98 26 -87 5 3 12 0 16 -6 4 -8 3 -9 -4 -5 -23 14 -12 -10 16
-37 15 -15 35 -27 44 -27 9 0 19 -4 22 -9 11 -17 78 7 112 40 40 38 62 91 36
83 -12 -4 -11 -1 3 7 11 8 25 14 30 14 6 0 9 23 7 55 -4 58 -30 101 -61 99
-11 0 -10 -3 4 -9 12 -4 26 -14 32 -21 10 -14 29 -128 19 -118 -3 3 -9 29 -13
59 -10 64 -31 84 -62 56 -11 -10 -18 -23 -14 -29 3 -6 1 -7 -6 -3 -7 4 -33 12
-59 17 l-47 8 52 -4 c29 -2 54 -1 57 3 2 4 -14 8 -36 9 -23 2 -48 8 -56 15
-13 11 -14 11 -7 -2 8 -13 6 -13 -8 -2 -9 8 -15 19 -14 24 1 6 -5 13 -13 15
-13 4 -13 3 0 -6z"/>
<path d="M8290 4029 c0 -5 4 -8 9 -5 5 3 20 -3 32 -15 l24 -20 -25 14 c-17 11
-32 12 -48 6 -25 -9 -25 -34 -1 -34 9 0 13 -10 11 -28 -3 -29 0 -30 58 -27 27
1 41 -5 60 -27 l25 -28 -27 24 c-23 20 -33 22 -65 15 -21 -4 -42 -8 -48 -8 -5
-1 -11 -10 -13 -21 -3 -16 -1 -17 7 -5 9 12 11 9 11 -15 0 -24 -2 -27 -11 -15
-8 12 -10 11 -7 -5 2 -11 8 -20 15 -20 6 0 15 -4 20 -9 5 -5 3 -6 -4 -2 -8 4
-13 2 -13 -6 0 -7 -3 -24 -6 -38 -3 -14 -2 -20 3 -15 9 12 28 13 39 2 4 -4 7
-27 6 -50 -1 -23 2 -49 8 -57 7 -11 9 -1 5 35 l-4 50 9 -44 c5 -23 12 -53 15
-65 5 -17 4 -18 -4 -6 -9 13 -11 13 -11 -2 0 -11 8 -18 19 -18 11 0 23 -4 26
-10 4 -6 -1 -7 -12 -3 -14 5 -13 1 6 -20 14 -15 32 -27 40 -26 10 0 8 4 -6 9
-34 14 -28 20 9 9 35 -10 95 -3 104 12 3 5 11 9 17 9 7 0 -1 -9 -18 -20 -16
-11 -25 -20 -18 -20 7 0 28 16 46 35 38 39 52 87 40 132 -4 15 -7 46 -7 68 -1
36 -4 40 -35 49 -23 7 -39 6 -52 -2 -26 -17 -50 -15 -76 6 -17 13 -20 21 -12
32 9 13 10 13 6 0 -8 -30 62 -56 79 -29 3 6 20 9 37 6 27 -4 28 -3 12 9 -16
12 -22 12 -41 -1 -36 -23 -63 -19 -75 13 -13 34 -58 82 -77 82 -10 0 -12 7 -8
28 5 21 4 24 -4 12 -9 -12 -10 -11 -8 6 2 12 -6 31 -16 43 -20 22 -46 28 -46
10z"/>
<path d="M7095 4009 c-29 -7 -29 -7 6 -6 27 1 51 -9 94 -38 31 -22 59 -44 62
-49 4 -5 -20 9 -53 32 -54 38 -66 42 -120 42 -34 0 -66 -5 -74 -12 -12 -11
-12 -10 -1 4 7 9 22 19 34 21 21 4 21 4 1 6 -11 0 -33 -12 -48 -28 -25 -26
-30 -28 -66 -19 -42 11 -70 6 -70 -12 0 -6 4 -9 9 -5 5 3 13 0 17 -6 4 -8 3
-9 -5 -5 -17 11 -25 -22 -10 -41 10 -12 10 -15 2 -9 -7 4 -13 2 -13 -3 0 -6
15 -12 33 -12 31 -2 31 -2 -8 -9 -37 -7 -30 -11 20 -14 11 -1 25 -5 32 -9 14
-9 43 1 43 16 0 15 29 -25 30 -40 0 -14 -61 -18 -74 -5 -4 4 -11 7 -14 8 -23
3 -82 36 -78 43 6 8 -23 39 -31 33 -2 -1 -14 0 -28 4 -45 11 -74 -41 -42 -75
10 -11 9 -13 -1 -7 -7 5 -15 -1 -21 -16 -5 -15 -16 -23 -32 -23 -14 0 -24 -6
-24 -15 -1 -8 -6 -14 -11 -13 -14 3 -11 -32 5 -51 15 -18 37 -21 45 -7 4 5 -2
7 -12 4 -11 -2 -25 3 -33 14 -13 16 -12 17 3 4 27 -20 44 -7 57 43 6 25 12 46
14 46 1 0 2 -22 2 -49 0 -39 -3 -47 -15 -43 -8 3 3 -14 25 -37 21 -22 46 -41
55 -40 10 0 9 3 -5 8 -11 5 -29 19 -40 32 l-20 24 26 -22 c14 -13 33 -23 43
-23 10 0 23 -14 31 -33 16 -38 40 -62 78 -76 20 -8 27 -18 28 -38 l1 -28 8 25
c7 20 8 17 7 -17 -1 -22 -5 -39 -9 -36 -13 7 -9 -12 4 -25 7 -7 20 -12 29 -12
10 0 20 -4 23 -9 4 -5 -4 -7 -16 -3 -14 3 -19 1 -14 -6 3 -6 -4 -18 -16 -26
-29 -21 -15 -21 20 0 l27 16 -25 -21 c-14 -11 -33 -21 -42 -21 -19 0 -33 -37
-25 -67 3 -10 5 -5 6 14 2 49 16 47 16 -2 0 -24 -3 -41 -7 -39 -20 13 7 -27
27 -40 31 -21 45 -21 19 0 -18 15 -18 15 3 5 11 -6 38 -10 60 -10 21 0 54 -3
74 -6 26 -5 48 -1 80 14 42 20 43 20 20 1 -13 -11 -20 -20 -16 -20 4 0 20 11
37 25 24 20 26 25 11 26 -12 0 -13 2 -5 6 8 3 26 -7 41 -21 32 -30 76 -45 141
-48 l45 -1 -50 -7 c-45 -6 -46 -7 -13 -8 27 -2 38 -7 43 -22 3 -10 29 -38 58
-60 45 -36 57 -41 86 -36 19 3 42 12 50 21 15 15 13 15 -14 1 -16 -9 -40 -16
-51 -16 -33 0 -125 77 -124 104 1 6 6 1 13 -11 7 -12 30 -36 52 -53 33 -26 46
-31 74 -26 19 3 44 14 56 26 12 11 25 17 30 13 4 -5 5 0 2 10 -5 12 -3 16 5
11 7 -5 9 -2 5 9 -4 12 -1 15 11 11 14 -5 13 -3 -2 10 -11 9 -15 16 -9 16 7 0
15 -4 18 -10 3 -5 21 -10 40 -10 46 0 76 38 71 92 -2 21 -7 42 -11 46 -5 4 -4
0 0 -8 7 -12 5 -12 -11 1 -30 26 -57 30 -87 14 -15 -8 -25 -10 -22 -5 4 6 0
10 -8 10 -11 0 -14 -11 -13 -42 2 -24 1 -33 -1 -20 -2 12 -9 20 -14 16 -5 -3
-7 -10 -4 -15 4 -5 -6 -4 -22 3 -39 16 -47 25 -32 33 8 5 10 4 5 -3 -4 -7 -3
-12 3 -12 5 0 18 -3 28 -6 16 -5 17 -5 1 6 -10 6 -15 17 -11 27 5 12 3 14 -8
8 -8 -5 -11 -5 -6 1 5 5 13 10 18 10 5 1 14 2 19 3 6 0 10 6 10 12 0 6 -6 9
-12 6 -10 -3 -13 10 -13 48 0 29 3 48 7 42 5 -8 8 -6 8 4 0 9 -9 27 -21 40
-11 13 -17 17 -13 9 7 -13 5 -13 -9 -1 -17 14 -24 26 -9 17 5 -3 9 8 9 24 0
26 -2 27 -13 12 -10 -14 -11 -13 -7 11 3 15 9 24 14 21 5 -3 9 1 9 9 0 10 -7
13 -19 10 -10 -3 -22 0 -25 5 -4 6 3 8 16 4 21 -5 22 -4 8 14 -14 18 -14 18 6
2 11 -10 27 -18 36 -18 8 0 27 -9 41 -20 32 -26 61 -25 99 1 26 19 29 26 26
64 -1 24 0 41 5 38 4 -2 7 -22 7 -43 0 -32 -6 -43 -32 -64 -18 -14 -28 -26
-22 -26 5 0 23 13 38 29 45 47 33 117 -27 155 -37 23 -128 30 -152 11 -20 -16
-20 -16 2 -5 32 15 130 1 156 -22 l22 -19 -25 14 c-40 23 -131 31 -155 13 -22
-17 -39 -21 -31 -7 3 4 -5 7 -19 6 -13 -2 -29 3 -36 11 -15 18 -43 18 -80 -1
-16 -9 -34 -13 -39 -10 -5 3 -12 0 -16 -6 -5 -8 -3 -9 7 -4 8 5 5 -1 -5 -13
-21 -24 -31 -29 -20 -9 6 8 3 8 -9 -2 -15 -12 -18 -10 -27 14 -5 14 -10 32
-10 38 0 7 -4 6 -10 -3 -6 -9 -10 -10 -10 -3 0 6 5 15 11 19 7 4 1 12 -17 21
-16 7 -22 11 -13 9 12 -3 18 3 21 24 2 16 1 27 -3 25 -8 -6 -19 20 -18 43 0
14 2 13 10 -3 8 -18 8 -18 6 5 -1 14 -7 25 -14 25 -6 0 -15 4 -20 9 -5 5 -2 6
6 1 33 -19 1 23 -45 58 -70 54 -94 65 -129 56z"/>
<path d="M4580 4002 c-8 -3 -36 -23 -62 -44 -44 -37 -48 -43 -46 -81 l1 -42 4
42 c3 35 11 47 50 79 34 28 54 37 79 36 31 -1 94 -26 94 -38 0 -2 -14 2 -30
11 -52 27 -92 22 -139 -16 -45 -35 -46 -42 -30 -147 4 -21 57 -54 82 -49 21 4
21 4 -3 6 -24 2 -75 31 -54 31 6 0 15 -5 21 -11 7 -7 35 -10 75 -7 58 4 61 4
33 -8 -22 -10 -25 -13 -11 -14 11 0 29 -8 40 -19 12 -10 35 -21 51 -25 22 -5
26 -4 15 4 -8 5 -22 10 -31 10 -9 0 -23 8 -30 18 -12 15 -12 16 1 6 41 -31 86
-24 132 20 18 17 28 21 31 13 4 -9 6 -8 6 1 1 8 -8 16 -20 19 -15 4 -17 8 -7
14 10 6 4 17 -22 44 -18 19 -41 35 -50 35 -9 0 -24 16 -33 35 -9 18 -28 41
-41 51 -30 19 -85 33 -106 26z"/>
<path d="M10199 3965 c-1 -3 -2 -11 -3 -17 -1 -7 -9 -12 -18 -10 -23 4 -32
-34 -25 -101 4 -45 10 -56 47 -89 23 -21 48 -38 54 -38 6 0 -6 11 -27 25 -20
14 -37 28 -37 31 0 3 13 -4 29 -15 35 -25 88 -27 121 -4 l25 17 -19 -22 c-11
-12 -26 -22 -35 -23 -12 0 -12 -2 -3 -6 17 -6 72 45 72 66 0 13 -2 14 -9 2 -6
-10 -9 -1 -8 26 2 41 17 50 17 11 0 -12 3 -19 6 -15 20 20 -53 131 -80 121 -7
-3 -35 4 -62 16 -49 21 -40 21 25 1 45 -14 31 -1 -17 16 -40 14 -51 16 -53 8z"/>
<path d="M11710 3961 c23 -8 23 -9 4 -10 -17 -1 -23 -9 -26 -36 -5 -40 -1 -49
26 -58 12 -5 17 -14 13 -27 -3 -12 0 -20 7 -20 7 0 21 -10 32 -22 l19 -23 -22
18 c-12 11 -37 20 -55 20 -30 2 -33 -1 -39 -33 l-6 -35 -3 35 c-3 31 -3 32 -7
8 -2 -15 1 -37 8 -49 10 -20 8 -25 -14 -41 -23 -17 -25 -24 -22 -71 3 -40 1
-47 -6 -28 -5 13 -7 33 -3 45 5 16 3 18 -6 10 -22 -22 -1 -82 43 -119 22 -19
47 -35 56 -35 8 0 -6 13 -32 30 -26 16 -47 32 -47 35 0 2 21 -9 47 -25 52 -33
107 -39 139 -15 10 8 23 15 29 15 25 1 -44 -35 -80 -41 -39 -6 -39 -7 -6 -8
71 -2 134 70 108 124 -12 26 -78 95 -91 95 -5 0 8 -16 30 -36 27 -25 29 -28 6
-10 -18 14 -48 28 -67 32 -34 6 -47 4 -90 -11 -13 -5 -10 0 7 12 22 15 25 22
15 32 -6 7 2 5 19 -5 26 -15 39 -16 70 -9 50 13 53 34 12 81 -27 31 -33 46
-33 85 0 26 3 45 8 42 4 -2 7 -11 7 -19 0 -8 4 -13 9 -10 11 7 -10 55 -23 53
-6 -1 -10 5 -11 13 0 9 -11 16 -25 17 l-25 2 25 -8z"/>
<path d="M3765 3941 c7 -13 -24 -22 -49 -16 -12 4 -16 3 -10 -2 8 -5 4 -14
-14 -27 -15 -12 -22 -14 -17 -5 8 12 6 12 -8 0 -19 -15 -24 -57 -5 -45 7 4 8
3 4 -5 -4 -6 -11 -9 -15 -6 -16 9 -31 -70 -21 -105 5 -19 8 -36 5 -38 -2 -2
-9 14 -14 36 -8 28 -8 48 -1 67 6 15 8 30 6 32 -3 3 -10 -12 -16 -34 -9 -30
-8 -46 3 -78 8 -22 19 -39 25 -38 5 1 18 -7 28 -19 11 -12 13 -18 7 -14 -7 4
-13 3 -13 -2 0 -10 27 -35 50 -46 8 -4 4 2 -10 14 l-25 21 42 -20 c53 -26 118
-27 159 -2 l31 19 2 -71 c1 -39 5 -75 8 -80 3 -6 1 -7 -5 -3 -7 4 -12 34 -12
72 l0 65 -32 -17 c-22 -11 -48 -15 -86 -12 -36 3 -48 2 -37 -5 18 -10 99 -5
128 7 15 7 17 2 17 -44 0 -52 14 -95 29 -86 4 3 6 -8 3 -23 -6 -43 49 -101 95
-101 35 0 104 39 134 76 13 16 12 17 -6 10 -13 -5 -16 -4 -10 2 6 6 18 12 29
14 27 5 51 84 37 121 -6 16 -15 26 -20 22 -5 -3 -13 0 -17 6 -5 8 -3 9 6 4 8
-5 11 -3 8 6 -3 8 -10 14 -15 14 -6 0 -15 4 -20 9 -5 5 -3 6 5 2 6 -4 12 -3
12 3 0 13 -97 87 -132 100 -19 7 -28 18 -29 33 -1 21 -2 21 -6 3 -8 -33 -18
-36 -18 -5 0 15 3 26 8 23 11 -6 9 35 -4 58 -5 11 -14 17 -19 14 -5 -3 -12 0
-16 6 -5 8 -3 9 6 4 8 -5 11 -3 9 4 -3 7 -7 11 -11 9 -3 -2 -17 7 -30 18 -13
12 -39 26 -58 32 -90 28 -100 31 -95 23z"/>
<path d="M6284 3893 c-12 -2 -30 -14 -40 -25 -13 -14 -14 -18 -4 -13 13 8 13
6 2 -8 -8 -9 -19 -15 -24 -14 -6 1 -13 -4 -16 -12 -3 -9 0 -11 9 -6 8 5 11 4
6 -1 -5 -5 -14 -9 -20 -9 -7 0 -13 -14 -15 -32 -3 -25 -9 -34 -35 -42 -32 -12
-87 -58 -87 -73 0 -5 3 -7 8 -5 4 3 7 -19 7 -48 0 -62 -5 -62 -16 -2 l-8 42 3
-50 c3 -41 10 -54 39 -82 42 -38 98 -51 134 -32 44 24 83 72 89 110 5 29 12
39 31 44 57 14 102 101 83 160 -10 32 -70 95 -90 95 -4 0 -14 2 -22 4 -7 2
-23 1 -34 -1z"/>
<path d="M5813 3859 c20 -11 37 -25 37 -32 0 -8 -3 -9 -8 -1 -4 6 -17 16 -30
23 -19 10 -29 9 -60 -6 -20 -10 -42 -29 -49 -43 -8 -15 -13 -19 -13 -9 0 16
31 48 65 67 15 9 16 11 4 12 -8 0 -30 -16 -49 -35 -31 -31 -32 -37 -21 -61 6
-15 9 -29 6 -32 -3 -3 -5 -2 -5 2 0 4 -18 -14 -40 -39 -22 -25 -40 -51 -40
-58 0 -6 7 -2 15 9 14 18 14 17 5 -8 -7 -20 -6 -27 2 -25 7 1 12 -5 13 -13 0
-16 65 -28 65 -12 0 5 -15 7 -32 6 l-33 -3 33 8 c18 5 41 15 50 23 9 8 35 16
57 17 59 4 115 57 115 109 0 41 -78 123 -115 122 -5 -1 7 -10 28 -21z"/>
<path d="M9566 3789 c-23 -27 -25 -37 -22 -97 5 -80 12 -102 35 -102 12 0 13
-2 3 -8 -16 -11 -10 -55 9 -60 11 -3 11 -1 -1 7 -11 8 -11 11 -2 12 6 1 17 3
22 4 6 1 13 3 18 4 4 1 0 6 -8 11 -11 7 -6 10 20 10 20 0 46 7 58 16 12 8 22
13 22 9 0 -3 -15 -14 -32 -25 -18 -11 -26 -20 -19 -20 16 0 71 48 71 62 0 5
-4 7 -9 4 -4 -3 -6 5 -4 18 3 13 0 34 -7 46 -8 14 -8 20 -1 16 6 -4 15 -21 21
-39 10 -31 10 -31 4 -2 -3 17 -8 46 -11 65 -6 33 -7 34 -14 10 l-7 -25 -1 25
c-2 46 -27 70 -75 70 -23 0 -48 -6 -56 -12 -12 -11 -12 -10 -1 5 9 11 27 17
54 17 24 0 49 -7 61 -17 21 -18 21 -18 2 5 -14 16 -30 22 -62 22 -35 0 -47 -5
-68 -31z"/>
<path d="M5376 3750 c-44 -39 -61 -86 -46 -126 14 -37 69 -94 89 -93 11 0 10
3 -4 8 -11 5 -29 19 -40 32 l-20 24 27 -24 c21 -18 39 -24 74 -24 58 0 94 33
105 95 l6 43 2 -37 c1 -47 -39 -96 -95 -115 l-39 -12 35 5 c51 8 110 72 110
118 0 40 -18 86 -34 86 -6 0 -5 -5 2 -12 7 -7 12 -16 12 -20 0 -5 -14 7 -31
27 -27 30 -37 35 -74 35 -32 0 -52 -7 -77 -27 l-33 -26 27 28 c21 23 40 31 80
36 l53 6 -47 2 c-40 1 -53 -4 -82 -29z"/>
<path d="M2832 3493 c-28 -14 -50 -28 -48 -30 2 -2 25 8 51 22 64 34 140 34
213 0 28 -13 52 -26 52 -29 0 -3 -24 6 -52 19 -72 34 -149 34 -212 0 -26 -14
-54 -25 -63 -25 -10 0 -14 -6 -10 -20 3 -11 0 -23 -5 -27 -7 -4 -8 -1 -4 8 4
8 -2 3 -13 -9 -30 -35 -42 -92 -34 -159 7 -56 8 -57 14 -23 7 32 7 32 5 -10
-2 -42 1 -48 48 -92 27 -27 54 -48 60 -48 6 0 33 -11 59 -24 l48 -24 69 29
c73 29 130 66 130 83 0 5 -12 -2 -27 -17 -16 -14 -60 -39 -100 -55 l-72 -29
-63 30 c-65 30 -119 67 -100 67 6 0 14 -5 17 -11 4 -5 39 -25 78 -44 l70 -34
36 18 c20 10 48 21 63 25 15 3 43 20 61 36 19 16 36 27 39 24 9 -9 39 47 35
64 -4 13 -5 12 -6 -4 0 -12 -9 -28 -18 -35 -17 -13 -17 -13 -3 5 11 13 15 43
15 102 0 45 4 80 9 77 5 -3 7 0 4 8 -3 8 -11 14 -18 14 -7 0 -15 7 -17 15 -4
13 -3 13 6 0 9 -13 11 -13 11 3 0 15 -11 21 -32 19 -3 -1 -12 6 -20 15 -9 12
-9 15 0 9 18 -11 15 9 -6 27 -66 60 -186 74 -270 30z"/>
<path d="M8268 3491 c-37 -8 -64 -48 -64 -93 1 -20 -3 -34 -7 -31 -5 3 -7 16
-4 30 3 17 1 21 -6 14 -13 -13 3 -66 20 -66 6 0 15 -4 20 -9 4 -5 3 -7 -2 -3
-6 3 -17 2 -25 -4 -12 -7 -10 -9 7 -9 25 0 39 -15 23 -25 -16 -10 34 -45 63
-45 14 0 28 4 31 8 2 4 -10 6 -28 4 -22 -3 -36 2 -47 15 -13 16 -12 17 3 5 27
-22 98 -10 114 19 18 33 17 44 -3 28 -10 -7 -7 -1 6 14 27 30 41 37 20 10 -11
-15 -10 -14 9 1 24 21 29 60 11 99 -7 16 -25 27 -55 35 -24 7 -48 11 -52 11
-4 -1 -19 -4 -34 -8z"/>
<path d="M6320 3422 c-22 -22 -40 -47 -39 -58 0 -16 1 -16 9 4 16 39 19 24 5
-30 -9 -34 -11 -57 -4 -69 7 -14 4 -21 -13 -33 -28 -20 -19 -21 16 -3 14 8 23
17 19 21 -4 4 1 4 11 0 15 -6 12 -10 -20 -26 -20 -10 -43 -18 -49 -18 -7 0
-17 -11 -23 -25 -15 -32 -16 -56 -2 -35 7 11 10 4 9 -25 0 -31 -2 -36 -9 -20
-7 17 -9 17 -9 3 -1 -10 15 -36 35 -58 31 -34 42 -40 76 -40 32 0 47 7 74 34
33 33 47 64 22 50 -8 -4 -10 -3 -5 2 5 5 14 9 20 9 5 0 12 6 15 14 3 9 0 11
-9 5 -11 -6 -12 -5 -2 7 20 25 -5 79 -37 80 -21 1 -20 2 8 9 38 9 92 56 92 79
0 14 2 14 9 2 8 -12 11 -9 16 12 10 37 -10 80 -52 117 -26 24 -43 30 -78 30
-38 0 -50 -6 -85 -38z"/>
<path d="M9991 3434 c-17 -14 -31 -32 -31 -40 0 -8 -7 -14 -15 -14 -21 0 -19
-26 3 -34 9 -3 23 -9 31 -12 9 -5 11 -3 6 6 -5 8 1 7 16 -3 33 -24 47 -21 82
16 20 21 26 25 18 10 -6 -12 -21 -29 -33 -37 -12 -9 -20 -18 -17 -20 5 -5 38
22 57 46 11 14 11 22 -2 47 -17 31 -52 61 -72 61 -7 0 -26 -12 -43 -26z"/>
<path d="M9506 3428 c-27 -5 -68 -22 -91 -38 -43 -30 -105 -94 -105 -110 0 -4
-3 -17 -6 -27 -6 -16 -5 -16 10 2 17 20 17 20 7 -2 -16 -31 -13 -118 3 -158 8
-19 13 -35 10 -35 -3 0 -11 15 -19 33 -8 17 -14 26 -15 19 0 -21 30 -73 39
-67 5 2 15 -3 22 -13 13 -15 12 -16 -3 -3 -33 26 -18 -5 20 -40 60 -56 127
-81 208 -77 44 2 59 7 59 18 0 8 9 17 20 20 11 3 39 15 62 28 51 27 76 28 94
5 11 -15 11 -16 -1 -5 -8 6 -22 12 -32 12 -27 0 -68 -22 -61 -33 3 -6 1 -7 -5
-3 -21 13 -33 -3 -21 -27 30 -58 95 -98 113 -68 3 4 -5 6 -18 4 -15 -3 -32 4
-52 22 l-29 27 28 -20 c28 -20 79 -24 106 -8 6 4 11 23 11 42 0 38 -39 83 -73
84 -17 0 -16 4 7 46 35 63 33 70 -4 12 -17 -27 -32 -48 -35 -48 -7 0 58 104
67 108 16 7 7 21 -9 16 -14 -4 -13 -2 2 7 27 18 75 21 69 4 -5 -11 35 -45 53
-45 4 0 -5 9 -22 20 -16 11 -25 20 -20 20 6 -1 19 -7 29 -15 33 -25 81 -18
123 16 l38 32 -37 -36 c-20 -20 -34 -38 -32 -40 6 -6 61 49 74 73 12 23 13 40
1 21 -6 -9 -10 -3 -13 20 -5 29 -4 30 9 14 7 -11 13 -14 13 -7 0 6 -10 21 -22
33 -13 12 -17 18 -9 14 9 -5 12 -3 10 4 -3 7 -9 13 -14 13 -6 0 -19 7 -30 14
-11 8 -29 14 -42 14 -12 0 -25 5 -28 10 -12 19 -43 10 -74 -22 -17 -17 -31
-36 -31 -40 0 -5 14 7 31 27 19 21 39 34 53 34 l21 -2 -21 -4 c-48 -9 -98
-105 -70 -133 8 -8 6 -9 -7 -4 -11 4 -16 13 -12 22 3 8 -3 24 -12 36 -17 20
-17 20 1 6 18 -14 19 -13 13 3 -4 10 -7 26 -8 35 0 14 -2 13 -9 -3 -7 -17 -9
-17 -9 -2 -1 9 -7 17 -14 17 -8 0 -21 8 -31 19 -15 17 -15 19 0 32 10 8 20 13
23 11 3 -2 7 0 8 5 5 14 -40 13 -57 0 -9 -7 -5 -2 8 11 29 28 20 29 -18 0 -16
-11 -26 -26 -23 -32 3 -6 -5 0 -20 13 -43 39 -123 60 -191 50 -56 -9 -89 -26
-151 -79 -28 -23 -28 -24 -10 -2 36 43 103 81 162 92 50 9 66 7 112 -10 29
-10 63 -27 75 -37 l21 -17 -20 22 c-19 21 -117 63 -140 61 -5 -1 -32 -5 -59
-11z"/>
<path d="M7990 3394 c-11 -19 -11 -30 -3 -44 7 -10 9 -21 5 -25 -15 -14 -9
-65 9 -81 28 -26 23 -34 -21 -34 -29 0 -40 -4 -40 -15 0 -10 10 -15 30 -15 17
0 30 5 30 10 0 6 8 10 18 10 16 -1 16 -1 -1 -11 -9 -6 -15 -14 -12 -19 6 -10
-29 -32 -38 -24 -3 3 -11 -4 -17 -16 -17 -31 15 -74 57 -78 36 -4 73 35 73 74
0 14 6 24 14 24 7 0 20 7 27 17 13 15 12 15 -8 5 -12 -7 -28 -10 -35 -7 -11 4
-13 -3 -10 -29 2 -18 0 -36 -5 -39 -5 -3 -7 7 -5 24 3 21 -1 34 -14 45 -18 14
-18 14 1 7 18 -6 19 -5 5 12 -15 18 -14 18 13 1 25 -17 29 -17 52 -2 14 9 25
24 26 34 0 11 2 12 6 4 3 -7 0 -19 -6 -26 -15 -17 39 -70 66 -63 16 4 15 5 -3
6 -11 0 -29 11 -40 24 l-19 22 21 -18 c27 -22 78 -18 82 7 6 30 -49 78 -64 54
-4 -6 -3 -8 3 -5 6 4 19 0 29 -8 18 -13 18 -14 -4 -8 -12 3 -28 1 -35 -5 -10
-8 -13 -6 -14 11 -2 18 -75 99 -93 103 -3 0 -13 4 -22 8 -9 4 -27 2 -40 -4
-18 -10 -21 -10 -11 0 9 10 9 17 0 31 -16 26 1 52 39 60 l29 7 -31 1 c-23 1
-34 -5 -44 -25z"/>
<path d="M6674 3180 c-12 -5 -25 -13 -28 -19 -4 -6 6 -4 21 4 15 8 36 15 46
15 26 0 69 -24 92 -51 l20 -24 -25 21 c-54 47 -87 53 -134 29 -15 -8 -33 -12
-39 -8 -6 4 -8 0 -4 -11 4 -10 3 -15 -3 -11 -6 4 -17 -10 -26 -31 -12 -28 -13
-42 -5 -58 l11 -21 -5 21 c-3 12 -1 32 4 45 7 20 8 17 7 -18 0 -28 6 -49 19
-65 l20 -23 -24 20 c-22 19 -23 19 -14 1 11 -20 73 -46 111 -46 13 0 33 5 45
11 22 10 22 10 2 -6 -20 -16 -67 -17 -110 -1 -13 5 -11 2 5 -8 14 -8 38 -15
53 -16 34 0 90 27 82 41 -4 5 -1 8 6 7 6 -2 14 3 17 11 3 9 0 11 -9 6 -8 -5
-11 -4 -6 1 5 5 14 9 20 9 5 0 12 6 15 14 3 8 1 11 -4 8 -5 -3 -10 14 -11 37
-1 30 1 36 7 21 9 -20 9 -20 9 1 1 11 -14 34 -31 51 -55 52 -87 62 -134 43z"/>
<path d="M7697 3115 c-10 -14 -15 -30 -12 -35 4 -6 1 -9 -6 -8 -7 2 -14 -6
-16 -17 -3 -15 -2 -17 6 -6 6 10 9 2 8 -26 -1 -23 -6 -39 -11 -36 -5 3 -6 0
-4 -8 3 -8 10 -13 16 -12 6 2 9 -3 6 -11 -6 -15 20 -39 44 -41 10 -1 32 -5 50
-9 22 -5 39 -3 50 5 16 12 16 12 0 -5 -14 -16 -22 -17 -59 -8 -23 6 -38 7 -33
2 5 -5 25 -11 44 -15 39 -7 61 9 75 54 6 18 4 22 -6 16 -8 -5 -11 -4 -6 1 5 5
14 9 20 9 17 0 21 72 6 106 -6 16 -17 29 -23 29 -7 0 -31 9 -54 20 -53 26 -73
25 -95 -5z"/>
<path d="M4649 3043 c-1 -5 -1 -11 -1 -14 1 -4 -9 -15 -21 -25 -12 -10 -16
-12 -9 -4 6 8 12 18 12 24 0 5 -6 1 -14 -9 -9 -12 -11 -29 -6 -52 5 -19 4 -31
-1 -27 -19 11 -8 -14 13 -32 22 -19 23 -19 8 1 -11 16 -11 18 0 8 17 -16 64
-17 93 -2 18 9 20 9 10 -1 -7 -7 -29 -16 -50 -19 -32 -6 -34 -8 -16 -13 25 -7
83 26 91 51 3 8 0 11 -7 7 -7 -4 -9 -1 -5 8 3 9 9 14 12 13 4 -1 8 3 10 8 1 6
-2 11 -8 11 -23 3 -24 5 -10 14 22 14 3 27 -55 39 -49 10 -49 10 -8 8 23 -1
39 1 37 5 -7 10 -74 10 -75 1z"/>
<path d="M7311 3014 c-12 -15 -21 -32 -21 -38 0 -6 5 -4 11 4 9 12 10 11 6 -6
-4 -21 47 -102 61 -96 3 2 8 -2 11 -9 2 -7 -1 -9 -9 -4 -8 5 -11 3 -8 -6 3 -8
11 -13 17 -11 7 1 10 -2 7 -7 -4 -5 10 -19 29 -31 36 -22 93 -25 107 -5 5 6 8
5 8 -2 0 -7 7 -13 15 -13 18 0 19 14 2 28 -8 7 -19 6 -37 -3 -36 -20 -64 -18
-91 6 l-24 21 25 -16 c35 -23 61 -20 106 10 28 19 34 21 24 8 -14 -18 -14 -18
8 0 34 29 30 91 -8 144 -38 50 -53 56 -105 38 -34 -13 -43 -13 -62 0 -32 20
-49 17 -72 -12z"/>
<path d="M10704 3008 c-12 -13 -29 -35 -38 -50 -16 -24 -16 -29 -3 -55 13 -24
22 -28 62 -31 27 -2 54 2 63 10 15 12 16 11 3 -5 -11 -14 -25 -18 -52 -15 -21
2 -35 0 -33 -4 3 -5 20 -8 38 -8 37 0 71 30 81 73 9 33 -1 77 -17 77 -9 0 -9
-3 0 -12 14 -14 15 -57 2 -78 -6 -10 -8 -3 -3 23 4 29 1 42 -13 58 -11 12 -17
24 -14 28 3 3 -9 7 -25 9 -22 2 -37 -4 -51 -20z"/>
<path d="M8728 2991 c-25 -22 -30 -32 -22 -42 12 -15 25 -59 18 -59 -3 0 -9
10 -14 23 -6 15 -9 17 -9 6 -1 -9 8 -27 20 -40 11 -13 17 -17 13 -9 -4 8 6 3
23 -12 35 -33 54 -35 78 -8 10 11 29 20 42 20 12 0 23 4 23 8 0 5 7 9 15 9 8
0 12 -4 10 -8 -7 -10 40 -20 62 -13 17 5 17 5 0 -6 -10 -6 -26 -9 -35 -5 -13
5 -14 3 -5 -5 6 -7 39 -14 72 -17 l61 -5 -1 28 -1 29 -8 -25 c-7 -23 -8 -23
-9 -4 -1 21 -25 39 -40 29 -4 -2 -8 2 -8 10 0 10 5 11 18 4 28 -15 36 -11 11
7 -12 8 -22 22 -22 30 0 8 -4 12 -10 9 -5 -3 -10 -1 -10 4 0 16 -42 13 -68 -5
-23 -16 -31 -41 -9 -28 6 4 9 3 4 -1 -11 -12 -47 -13 -54 -2 -3 6 -1 7 5 3 19
-11 14 5 -5 21 -10 8 -12 12 -5 8 34 -17 -2 28 -47 57 -36 25 -56 22 -93 -11z"/>
<path d="M3077 2982 c-28 -29 -36 -49 -15 -36 7 4 8 3 4 -5 -4 -6 -11 -9 -16
-6 -5 3 -18 -12 -30 -34 -22 -43 -28 -77 -9 -51 9 12 10 11 4 -5 -16 -49 -17
-75 -4 -75 11 0 11 -2 -1 -10 -12 -8 -10 -9 7 -7 24 3 63 34 63 49 0 5 -4 6
-10 3 -5 -3 -10 -1 -10 4 0 6 6 11 13 11 7 0 21 16 30 35 20 41 21 49 7 40 -6
-3 -7 1 -4 9 3 9 11 14 17 13 7 -1 12 12 12 34 1 38 -15 47 -45 25 -9 -6 -5
-1 8 12 13 12 19 22 14 22 -4 0 -20 -13 -35 -28z"/>
<path d="M4411 2945 c-21 -19 -48 -35 -60 -35 -31 0 -81 -52 -81 -85 0 -16 12
-38 30 -57 25 -24 37 -29 62 -26 21 3 43 -2 63 -13 33 -21 90 -25 101 -8 4 6
20 9 38 6 28 -5 29 -5 8 5 -16 8 -29 8 -48 0 -35 -17 -64 -15 -99 7 -19 11
-42 16 -61 14 -21 -3 -37 2 -54 17 l-25 21 28 -17 c15 -9 38 -14 53 -11 17 3
40 -3 61 -15 24 -15 42 -18 66 -13 17 3 52 7 75 8 49 3 76 27 69 64 -2 12 0
20 4 17 17 -10 9 -45 -16 -69 -13 -14 -20 -25 -15 -25 13 0 50 50 50 68 0 20
-49 84 -60 77 -4 -3 -11 2 -14 11 -3 8 -2 12 4 9 21 -13 9 12 -17 37 -64 59
-107 63 -162 13z"/>
<path d="M5772 2905 c-53 -68 -50 -118 9 -154 25 -15 37 -17 61 -9 16 6 27 12
25 14 -2 3 -15 0 -28 -5 -22 -8 -79 10 -79 25 0 2 12 -2 27 -9 20 -11 34 -12
62 -4 46 14 43 11 47 52 2 31 -3 40 -44 75 -26 22 -50 40 -54 40 -4 0 -15 -11
-26 -25z"/>
<path d="M9621 2771 c-41 -39 -41 -78 0 -126 35 -39 79 -47 114 -18 l20 16
-20 -8 c-49 -19 -72 -17 -101 10 l-29 27 29 -21 c33 -24 47 -26 95 -9 46 16
51 24 47 72 -7 80 -95 113 -155 57z"/>
<path d="M3769 2739 c-16 -17 -29 -36 -29 -42 0 -6 7 -2 16 9 14 18 15 18 4
-5 -9 -17 -9 -30 -1 -47 6 -13 7 -23 3 -21 -4 1 -8 -2 -9 -8 -2 -5 6 -10 16
-10 11 0 23 -3 27 -7 11 -11 62 -10 69 2 3 5 12 7 20 4 16 -7 38 30 32 54 -3
12 -5 11 -6 -5 0 -12 -4 -24 -9 -27 -4 -2 -6 13 -4 33 3 32 -1 42 -23 60 -29
22 -70 28 -80 11 -3 -5 -11 -10 -18 -10 -6 0 -2 7 9 15 31 24 63 18 100 -19
19 -19 34 -30 34 -26 0 4 -16 22 -35 39 -46 40 -79 40 -116 0z"/>
<path d="M5755 2722 c-28 -6 -64 -32 -77 -56 -10 -19 -9 -20 5 -8 14 12 15 11
4 -12 -6 -13 -14 -21 -17 -17 -3 4 -14 13 -25 20 l-20 13 20 -7 c15 -5 17 -3
8 6 -17 17 -28 5 -31 -31 -2 -30 0 -32 23 -28 17 4 25 1 25 -9 0 -28 33 -71
67 -87 42 -20 62 -20 93 0 l25 16 -25 -22 c-23 -20 -41 -22 -90 -9 -8 2 -27
16 -41 31 -68 73 -179 77 -261 11 l-43 -35 42 40 c43 39 76 52 139 52 26 0 34
4 34 18 0 10 -3 13 -8 6 -4 -6 -31 -14 -61 -17 -39 -5 -65 -15 -90 -35 -47
-38 -80 -84 -64 -89 7 -2 9 -11 6 -19 -5 -12 -8 -13 -14 -3 -5 9 -10 5 -14
-14 -8 -30 13 -120 25 -112 4 3 7 -3 6 -12 0 -9 5 -18 13 -21 9 -3 11 0 6 9
-5 8 12 -5 38 -28 45 -42 49 -43 115 -43 44 0 76 5 92 16 l25 16 -24 -21 c-19
-17 -37 -21 -92 -21 -65 0 -71 2 -109 36 -22 20 -40 32 -39 28 0 -5 18 -24 41
-41 36 -30 47 -33 107 -33 72 0 89 8 154 69 32 30 51 61 30 48 -5 -3 -6 24 -5
59 3 42 -1 71 -9 82 -10 14 -10 15 0 6 18 -16 72 -2 115 31 20 15 36 30 36 32
0 3 -8 -1 -17 -8 -13 -11 -15 -11 -9 -1 4 7 19 17 33 23 25 9 30 44 6 44 -6 0
-15 4 -20 9 -5 5 -3 6 5 2 27 -16 11 35 -23 73 -34 38 -68 51 -110 43z"/>
<path d="M3736 2660 c5 -20 4 -23 -7 -12 -25 23 -75 14 -103 -19 -14 -17 -26
-36 -26 -42 0 -6 6 -3 13 6 10 15 12 12 12 -22 0 -37 -14 -49 -16 -13 0 10 -3
12 -5 5 -7 -16 15 -55 26 -48 4 3 20 1 35 -5 20 -8 34 -7 56 4 16 8 27 10 23
5 -12 -20 -53 -29 -81 -18 -22 8 -25 8 -16 -2 7 -7 27 -12 44 -12 40 0 89 50
89 90 0 21 3 24 12 15 18 -18 64 -15 79 6 11 14 11 15 -1 5 -16 -15 -66 -17
-75 -4 -3 6 -14 8 -24 6 -11 -2 -27 5 -37 16 -20 22 -73 26 -94 7 -12 -11 -12
-10 -1 5 15 19 71 23 88 6 16 -16 27 7 13 28 -9 15 -10 14 -4 -7z"/>
<path d="M10354 2646 c-35 -16 -64 -51 -64 -79 0 -9 -15 -31 -34 -48 -68 -59
-67 -133 2 -191 50 -42 87 -45 135 -12 37 26 69 69 37 49 -9 -5 -11 -4 -6 4 4
6 11 9 16 6 9 -6 50 41 50 57 0 5 -12 24 -26 43 -24 32 -25 35 -10 64 23 43
20 59 -15 92 -35 33 -41 34 -85 15z"/>
<path d="M2941 2471 c-22 -20 -31 -37 -30 -58 2 -27 2 -27 6 -3 7 37 20 46 15
10 -3 -20 2 -37 13 -50 22 -24 68 -26 85 -5 8 10 16 12 20 6 3 -6 5 10 4 35
-1 32 -9 53 -25 70 -29 31 -50 30 -88 -5z"/>
<path d="M9292 2454 c-19 -15 -31 -32 -28 -40 3 -8 0 -13 -7 -11 -8 1 -12 -13
-12 -43 0 -28 4 -44 11 -43 7 1 10 -6 7 -16 -3 -13 6 -27 31 -46 20 -15 39
-25 43 -21 3 3 2 6 -3 6 -5 0 -20 10 -34 21 -24 19 -22 18 18 -2 29 -15 51
-19 70 -14 15 4 41 7 57 8 24 2 30 7 29 25 -1 28 4 28 15 0 6 -16 8 -6 6 34
-4 60 -20 102 -35 93 -6 -3 -7 0 -4 8 7 19 -65 67 -102 67 -16 0 -44 -12 -62
-26z"/>
<path d="M2395 2444 c-63 -23 -156 -123 -155 -166 1 -7 7 2 15 20 20 46 26 40
8 -8 -9 -22 -19 -37 -23 -35 -8 5 -20 -19 -19 -38 0 -7 4 -3 9 8 7 17 9 15 9
-12 1 -17 5 -34 11 -38 6 -4 5 -15 -2 -30 -9 -21 -7 -30 16 -64 40 -57 57 -69
117 -87 107 -32 218 -9 272 56 15 17 27 28 27 23 0 -18 -66 -72 -105 -86 -63
-24 -130 -29 -162 -12 -15 8 -37 14 -48 14 -12 0 -5 -5 15 -11 19 -5 40 -14
46 -19 14 -12 96 -2 151 18 25 9 60 35 83 59 38 41 54 74 28 58 -7 -4 -8 -3
-4 5 4 6 12 9 17 6 5 -4 12 1 16 10 3 10 1 20 -5 24 -7 4 -8 12 -2 21 9 13 10
13 10 0 1 -12 2 -12 10 2 6 10 7 25 1 40 -9 21 -10 21 -11 3 -1 -16 -4 -14
-12 8 -8 21 -7 35 2 52 13 24 6 50 -11 40 -5 -3 -6 0 -4 7 3 8 -11 32 -31 53
-20 22 -30 32 -23 22 12 -17 9 -17 -22 2 -114 69 -212 65 -299 -13 l-35 -31
34 37 c68 75 205 89 274 30 9 -8 19 -13 22 -10 8 7 -33 32 -74 46 -45 16 -97
14 -146 -4z"/>
<path d="M11267 2327 c-46 -43 -56 -91 -29 -143 36 -69 115 -126 174 -123 15
1 10 4 -15 10 -52 12 -87 32 -117 65 -24 27 -23 27 12 -3 71 -60 159 -67 241
-19 33 20 47 24 53 15 5 -8 3 -9 -6 -4 -9 5 -11 4 -6 -4 4 -6 12 -9 17 -5 5 3
7 10 4 15 -4 5 -1 9 5 9 6 0 9 4 6 9 -4 5 4 7 16 3 21 -5 21 -6 3 -12 -14 -5
-8 -9 23 -14 50 -8 62 -3 63 27 1 18 2 18 6 4 8 -29 -17 -50 -51 -43 -22 4
-27 3 -16 -4 23 -15 45 -12 65 10 24 26 12 65 -27 88 -22 13 -30 14 -40 4 -11
-11 -10 -12 4 -7 9 4 27 0 40 -9 12 -9 18 -16 12 -16 -5 0 -16 6 -22 12 -10
10 -17 10 -31 1 -12 -7 -22 -8 -28 -2 -6 6 -20 4 -38 -5 -27 -14 -29 -14 -40
7 -6 12 -16 22 -22 22 -6 0 -15 4 -20 9 -5 5 -3 6 5 2 15 -9 15 -4 0 29 -6 14
-16 25 -21 25 -5 0 -4 -7 3 -15 7 -9 11 -17 9 -19 -2 -2 -15 11 -29 28 -13 17
-17 25 -7 17 9 -7 17 -9 17 -3 0 13 -25 33 -32 26 -3 -3 -23 2 -43 10 -47 20
-78 20 -118 0 l-32 -15 25 20 c30 25 74 27 124 6 20 -8 36 -13 36 -10 0 10
-74 35 -106 35 -23 0 -43 -9 -67 -33z"/>
<path d="M9818 2305 c-34 -23 -55 -56 -25 -39 7 4 9 3 4 -2 -5 -5 -14 -9 -20
-9 -7 0 -13 -20 -15 -48 -3 -46 -1 -51 41 -93 40 -39 49 -44 91 -44 39 0 52 6
86 36 22 20 40 41 40 46 0 5 -3 7 -7 5 -5 -3 -8 17 -8 43 0 27 3 46 7 43 21
-12 4 17 -26 46 -49 47 -115 53 -168 16z"/>
<path d="M7779 2263 c-13 -15 -12 -15 8 -5 27 15 60 3 88 -29 l20 -24 -27 24
c-14 12 -37 23 -50 22 -71 -1 -93 -19 -85 -69 4 -25 4 -25 6 5 2 49 16 47 16
-2 0 -24 -3 -41 -7 -39 -5 3 -8 1 -8 -4 0 -6 16 -24 35 -41 49 -42 86 -42 119
2 15 19 26 42 26 51 0 44 -71 126 -110 126 -9 0 -24 -7 -31 -17z"/>
<path d="M6953 2253 c-23 -4 -73 -56 -73 -75 0 -6 10 4 23 22 34 52 104 63
152 25 18 -14 16 -14 -13 0 -50 25 -108 12 -133 -29 -22 -36 -25 -85 -6 -106
10 -12 9 -12 -6 0 -17 12 -17 12 -6 -13 7 -15 16 -27 21 -27 5 0 6 5 3 11 -4
6 2 5 14 -3 26 -16 11 -34 -17 -19 -16 9 -24 8 -36 -4 -22 -23 -9 -48 24 -43
23 3 26 0 26 -22 0 -21 -4 -25 -24 -25 -19 0 -27 -7 -33 -27 -6 -22 -3 -27 16
-32 13 -3 33 -2 46 2 15 6 33 3 57 -10 20 -10 50 -18 68 -18 35 0 136 41 117
47 -7 2 -9 11 -6 19 4 12 8 13 13 4 5 -8 10 -2 14 17 9 40 -16 96 -59 128 -21
17 -39 41 -45 64 -12 43 -12 64 0 36 6 -14 9 -15 9 -5 1 23 -27 58 -59 75 -29
15 -44 16 -87 8z"/>
<path d="M8768 2249 c-44 -25 -5 -109 57 -125 50 -12 119 67 86 99 -10 10 -11
7 -6 -15 5 -21 1 -33 -19 -52 -29 -30 -50 -32 -86 -10 -17 10 -18 13 -5 8 48
-16 64 -15 84 5 26 26 26 41 0 75 -16 20 -29 26 -57 26 -20 0 -45 -5 -54 -11z"/>
<path d="M8395 2230 l30 -8 -27 -2 c-16 -1 -32 -4 -38 -5 -5 -1 -18 -4 -27 -5
-13 -1 -12 -4 7 -11 22 -7 21 -8 -9 -6 -30 2 -38 -3 -53 -30 l-19 -32 28 -30
c30 -33 96 -48 99 -23 1 6 3 22 4 35 2 21 2 21 10 -3 8 -24 8 -24 9 -2 1 12 7
22 14 23 6 1 1 5 -13 9 l-25 8 26 1 c15 1 32 8 39 16 14 17 6 46 -12 43 -7 -2
-12 4 -13 12 0 9 -11 16 -30 17 l-30 2 30 -9z"/>
<path d="M10624 2191 c-3 -3 -11 -6 -17 -6 -23 0 -18 -33 9 -61 14 -16 21 -20
13 -9 -11 17 -11 18 1 7 8 -7 13 -27 12 -50 -1 -20 2 -44 8 -52 7 -11 8 -4 5
25 -2 22 -2 31 1 20 3 -11 9 -33 14 -48 7 -19 6 -26 -2 -21 -6 4 -9 1 -7 -5 3
-7 9 -13 14 -13 17 0 35 -20 29 -30 -4 -5 9 -25 27 -44 27 -28 39 -33 60 -29
15 4 30 1 34 -4 3 -6 11 -11 18 -11 6 0 2 7 -10 15 -13 9 -32 13 -45 10 -18
-5 -30 2 -53 27 l-30 33 32 -28 c23 -21 37 -27 53 -22 12 4 28 1 37 -7 12 -9
17 -10 20 -2 2 7 14 10 26 7 20 -4 20 -3 -3 11 l-25 14 30 -1 c17 -1 31 3 33
8 1 6 -2 10 -7 10 -5 0 -13 4 -18 9 -5 5 -3 6 5 2 13 -8 15 6 5 43 -6 23 -7
23 -13 6 -6 -17 -8 -16 -12 7 -3 17 -1 25 5 21 5 -3 7 0 5 8 -3 8 -10 13 -16
12 -5 -1 -16 5 -24 15 -12 15 -11 16 5 3 9 -7 17 -9 17 -3 0 14 -66 71 -99 85
-14 6 -36 21 -49 33 -22 21 -73 30 -88 15z"/>
<path d="M3914 2069 c-49 -34 -96 -64 -104 -67 -30 -10 -48 -33 -43 -53 5 -17
11 -19 37 -13 47 10 246 143 246 164 0 23 -65 -2 -138 -53 -46 -31 -80 -52
-77 -47 8 14 149 108 178 120 14 5 16 9 6 9 -8 1 -55 -27 -105 -60z"/>
<path d="M5646 2093 c-27 -26 -44 -69 -32 -80 3 -4 6 3 6 15 0 30 47 82 75 82
12 0 33 -9 46 -21 l24 -21 -25 16 c-36 23 -66 20 -89 -10 -24 -30 -27 -63 -8
-84 9 -11 8 -11 -7 0 -18 13 -19 13 -11 0 32 -58 89 -78 116 -42 11 14 11 15
-1 5 -19 -18 -52 -16 -76 3 -18 14 -18 15 5 3 18 -9 33 -8 63 2 21 7 42 17 45
22 3 6 2 8 -3 5 -5 -4 -9 11 -9 32 0 42 10 41 18 0 4 -24 4 -24 6 4 1 20 -9
38 -33 62 -41 41 -74 43 -110 7z"/>
<path d="M8222 2078 c-7 -7 -27 -18 -45 -25 l-32 -12 40 4 c39 5 39 5 -9 -9
-26 -8 -58 -23 -70 -33 -12 -10 -9 -6 6 10 16 15 25 27 20 27 -10 0 -72 -63
-72 -74 0 -4 4 -5 9 -2 5 4 5 -9 1 -30 -11 -47 -22 -57 -15 -13 5 31 4 32 -4
7 -10 -31 -3 -77 9 -58 5 8 9 4 13 -9 3 -13 1 -19 -5 -15 -6 4 -9 1 -6 -7 3
-8 10 -14 16 -14 7 0 12 -3 12 -7 0 -40 -1 -43 -10 -23 -7 15 -9 16 -9 4 -1
-9 8 -28 19 -41 18 -23 26 -25 106 -27 83 -1 88 1 121 29 18 17 30 30 25 30
-5 0 -19 -11 -32 -25 -22 -23 -30 -25 -112 -24 -68 1 -91 5 -100 18 -11 14
-11 14 2 5 8 -6 54 -12 101 -13 79 -1 87 1 109 24 13 14 31 25 41 25 12 0 18
12 23 44 8 49 -1 99 -16 90 -5 -3 -8 0 -7 7 4 19 -20 61 -31 54 -5 -3 -12 0
-16 6 -4 8 -3 9 4 5 22 -14 13 40 -10 60 -22 19 -22 19 -8 0 14 -18 14 -19 -9
-7 -12 7 -32 10 -43 7 -12 -3 -17 -1 -12 4 5 4 18 10 29 13 20 5 20 5 0 6 -12
0 -27 -5 -33 -11z"/>
<path d="M7306 1989 c-15 -12 -25 -28 -22 -35 3 -8 0 -13 -7 -11 -6 1 -13 -9
-14 -23 -2 -22 -2 -23 6 -5 8 16 10 11 10 -23 2 -80 74 -125 139 -86 l27 16
-25 -21 c-38 -31 -76 -27 -116 13 -19 19 -34 45 -35 58 0 12 -3 17 -6 10 -15
-38 57 -112 109 -112 33 0 94 55 103 93 4 15 4 38 1 51 -7 28 -53 86 -68 86
-6 0 0 -9 13 -21 l24 -21 -25 16 c-32 21 -79 20 -110 0 -24 -16 -24 -16 -8 1
9 10 34 21 55 25 36 7 37 8 7 9 -18 1 -43 -8 -58 -20z"/>
<path d="M8661 1925 c-22 -25 -31 -45 -30 -68 1 -31 2 -31 9 7 16 82 110 115
175 61 l30 -26 -35 21 c-78 45 -160 11 -160 -66 0 -29 7 -44 34 -69 48 -45 89
-51 143 -23 45 24 59 43 45 62 -13 17 -32 66 -26 66 3 0 11 -15 19 -32 8 -18
14 -27 15 -20 0 25 -30 71 -63 96 -25 19 -46 26 -79 26 -40 0 -50 -5 -77 -35z"/>
<path d="M10023 1899 c-18 -18 -19 -26 -11 -51 13 -38 60 -63 89 -47 11 6 22
9 23 7 1 -2 8 -12 16 -22 14 -18 14 -19 -7 -5 -19 11 -27 11 -43 1 -11 -7 -20
-8 -20 -3 0 5 -9 13 -21 16 -11 4 -29 21 -40 38 -10 18 -19 26 -19 18 0 -7 16
-29 36 -47 19 -19 33 -38 30 -43 -10 -15 34 -61 58 -61 25 0 56 28 56 51 0 12
-2 11 -11 -1 -8 -12 -9 -12 -7 5 1 11 -3 30 -10 43 -7 12 -10 23 -7 23 3 1 9
2 15 3 5 0 17 12 27 25 10 15 12 21 3 16 -9 -6 -12 -4 -8 7 5 11 -2 15 -25 16
-18 1 -47 5 -65 8 -24 5 -39 2 -55 -12 l-22 -19 20 23 c16 20 27 23 57 19 22
-3 36 -1 32 4 -10 17 -69 9 -91 -12z"/>
<path d="M6089 1591 c-36 -36 -36 -51 -3 -90 30 -36 61 -39 98 -10 26 20 35
61 18 85 -11 18 -68 27 -94 14 -22 -11 -22 -11 -3 5 13 11 30 14 50 11 22 -4
26 -3 15 4 -26 17 -51 11 -81 -19z"/>
<path d="M6633 1480 c-17 -10 -37 -28 -42 -39 -13 -23 -15 -42 -3 -23 5 8 8
-1 8 -22 -1 -19 -4 -32 -8 -29 -18 10 -6 -15 15 -34 54 -49 83 -53 126 -17 27
22 45 54 24 41 -5 -3 -8 14 -8 38 0 24 4 41 9 38 5 -3 6 0 4 8 -3 8 -11 14
-19 15 -8 0 -27 6 -43 13 -24 10 -34 8 -63 -9 -19 -11 -31 -15 -28 -10 12 19
64 40 81 33 12 -4 15 -3 10 5 -10 17 -26 15 -63 -8z"/>
<path d="M8299 1468 c-1 -6 -8 -44 -11 -64 -2 -11 -14 -33 -26 -49 -40 -50
-24 -115 42 -173 47 -41 73 -48 97 -26 10 9 19 24 19 33 0 14 -2 14 -10 1 -7
-11 -8 -3 -4 27 4 23 1 57 -5 75 -10 30 -9 31 4 14 8 -11 15 -15 15 -8 0 14
-59 82 -72 82 -5 0 1 -10 14 -22 13 -13 17 -18 8 -11 -31 23 -70 26 -93 7 -22
-19 -22 -19 1 7 12 14 19 30 15 34 -5 5 0 3 9 -4 26 -19 51 -7 43 21 -5 21 -5
21 9 -2 9 -14 15 -20 16 -13 0 7 -12 25 -26 40 -14 15 -23 22 -19 16 4 -9 1
-11 -9 -7 -9 3 -13 10 -10 15 3 5 3 9 0 9 -3 0 -6 -1 -7 -2z"/>
<path d="M2633 1405 c-27 -23 -43 -46 -47 -68 -7 -39 10 -97 29 -97 7 0 23 -8
36 -18 35 -27 68 -33 104 -18 47 20 78 68 73 116 -2 21 0 36 4 34 19 -12 5 15
-19 38 -65 60 -120 65 -180 13z"/>
<path d="M9596 1373 c11 -2 43 -24 70 -49 47 -44 48 -45 4 -9 -50 40 -72 48
-121 43 -33 -4 -34 -6 -43 -60 -8 -48 -6 -61 11 -90 10 -18 35 -43 54 -56 28
-19 35 -31 39 -67 4 -25 2 -41 -3 -38 -5 3 -8 0 -5 -8 3 -8 10 -14 15 -14 6 0
15 -4 20 -9 5 -5 2 -6 -6 -1 -9 5 -12 3 -9 -6 3 -8 12 -13 19 -11 8 2 11 0 6
-4 -10 -10 23 -45 36 -37 6 3 7 1 3 -5 -4 -6 5 -19 19 -28 23 -15 34 -16 87
-6 84 16 128 61 128 132 0 36 -27 93 -40 85 -5 -3 -12 0 -16 6 -4 8 -3 9 4 5
7 -4 12 -1 12 8 0 9 -8 16 -17 17 -13 0 -11 3 7 11 14 5 32 11 40 12 8 2 16
10 18 18 4 19 -54 88 -73 88 -19 0 -75 -49 -75 -66 0 -9 -11 -14 -29 -14 -23
0 -30 5 -33 25 -6 31 0 32 12 3 8 -21 9 -21 9 -3 1 28 -112 135 -141 134 -21
-2 -21 -2 -2 -6z"/>
<path d="M6346 1211 c-3 -4 5 -6 17 -4 14 3 33 -4 47 -17 l25 -21 -29 17 c-23
14 -33 16 -57 7 -22 -9 -28 -8 -23 0 3 7 -4 1 -15 -12 -38 -42 -20 -97 39
-121 28 -11 34 -11 58 7 22 16 26 27 25 59 -2 37 -1 37 7 9 l8 -30 1 32 c1 23
-7 38 -30 57 -30 26 -63 34 -73 17z"/>
<path d="M9127 1093 c12 -2 27 -12 35 -21 12 -15 11 -16 -4 -4 -9 7 -29 12
-44 10 -22 -2 -28 -9 -30 -33 -2 -18 0 -25 5 -17 7 11 10 10 14 -3 4 -9 3 -13
-3 -10 -11 7 -40 -46 -40 -75 0 -47 79 -141 118 -140 10 1 5 6 -13 14 -16 7
-39 24 -50 37 -17 20 -15 20 13 -4 38 -31 78 -35 122 -12 17 9 30 13 30 10 0
-3 -19 -15 -42 -25 -24 -11 -37 -20 -30 -20 22 0 70 29 86 52 26 37 14 151
-14 133 -5 -3 -12 0 -16 6 -4 8 -3 9 4 5 7 -4 12 -3 12 3 0 12 -46 48 -73 57
-11 3 -30 15 -41 25 -11 11 -29 18 -40 18 -20 -2 -20 -2 1 -6z"/>
<path d="M6189 571 c-27 -34 -24 -58 15 -97 43 -43 64 -43 104 -1 59 60 33
119 -54 121 -38 1 -50 -3 -65 -23z"/>
<path d="M9929 209 c-16 -17 -29 -39 -28 -48 0 -11 3 -9 9 7 13 32 16 27 11
-20 -3 -35 -5 -39 -12 -23 -8 18 -8 17 -6 -5 1 -14 7 -25 14 -25 6 0 15 -4 20
-9 5 -5 3 -6 -4 -2 -19 11 -15 -9 5 -25 9 -8 32 -14 51 -13 22 2 30 -1 21 -6
-7 -4 -20 -6 -29 -3 -14 4 -14 3 -1 -6 22 -15 52 8 69 53 18 46 1 116 -27 116
-10 0 -23 5 -30 12 -9 9 -18 9 -39 0 -26 -11 -27 -11 -9 3 23 17 42 19 51 5 3
-5 11 -10 18 -10 15 0 -25 29 -41 30 -8 0 -27 -14 -43 -31z"/>
</g>
</svg>
